<?xml version="1.0" standalone="no"?>
<!DOCTYPE svg PUBLIC "-//W3C//DTD SVG 1.1//EN" "http://www.w3.org/Graphics/SVG/1.1/DTD/svg11.dtd">
<svg xmlns="http://www.w3.org/2000/svg">
<metadata>Generated by Fontastic.me</metadata>
<defs>
<font id="bmbf" horiz-adv-x="512">
<font-face font-family="bmbf" units-per-em="512" ascent="480" descent="-32"/>
<missing-glyph horiz-adv-x="512" />

<glyph unicode="&#57344;" d="M367 343c-24 6-46 14-64 22 3-19 5-41 6-63 18-2 35 7 35 7 0 0-14-28-35-34-1-25-3-47-7-66 9 3 19 5 30 2 48-12 47-80 47-80 0 0-25 32-57 40-10 3-21 3-32 2-9-21-21-39-37-52 12-14 28-24 48-29 139-36 211 239 211 239 0 0-60-11-145 12z m30-96c-29 7-26 54-26 54 0 0 14-21 33-26 19-5 42 5 42 5 0 0-22-41-49-33z m-117 177c0 0-48-40-134-60-85-21-146-9-146-9 0 0 68-277 208-243 140 35 72 312 72 312z m-203-164c0 0-1 46 27 54 29 7 50-36 50-36 0 0-24 12-42 7-20-5-35-25-35-25z m120-106c-47-13-79 48-79 48 0 0 38-18 70-10 32 7 58 41 58 41 0 0 0-67-49-79z m17 154c-19-5-34-24-34-24 0 0 0 46 29 53 28 7 48-36 48-36 0 0-23 11-43 7z"/>
<glyph unicode="&#57345;" d="M457 111c0-23-7-41-21-55-14-13-32-19-55-19l-250 0c-23 0-41 6-55 19-14 14-21 32-21 55 0 10 0 20 1 29 1 10 2 20 4 31 2 11 4 22 7 31 3 10 8 19 13 28 5 9 11 17 17 23 7 7 15 12 25 16 9 3 20 5 32 5 1 0 5-2 12-6 6-4 13-9 21-14 8-5 18-9 31-13 13-4 25-6 38-6 13 0 25 2 38 6 13 4 23 8 31 13 8 5 15 10 21 14 7 4 11 6 12 6 12 0 23-2 32-5 10-4 18-9 25-16 6-6 12-14 17-23 5-9 10-18 13-28 3-9 5-20 7-31 2-11 3-21 4-31 1-9 1-19 1-29z m-91 255c0-31-11-56-32-78-22-21-48-32-78-32-30 0-56 11-78 32-21 22-32 47-32 78 0 30 11 56 32 77 22 22 48 32 78 32 30 0 56-10 78-32 21-21 32-47 32-77z"/>
<glyph unicode="&#57346;" d="M420 286l-45 0 0 43c0 0 0 0 0 0 0 67-54 122-121 122-67 0-122-55-122-122l0-43-40 0c-8 0-14-6-14-14l0-197c0-8 6-14 14-14l328 0c8 0 14 6 14 14l0 197c0 8-6 14-14 14z m-216 43c0 28 22 50 50 50 27 0 49-22 50-49 0 0 0 0 0 0l0 0c0-1 0-1 0-1l0-43-100 0z"/>
<glyph unicode="&#57347;" d="M347 274c0 36-12 66-37 91-25 25-55 37-91 37-35 0-65-12-90-37-25-25-38-55-38-91 0-35 13-65 38-90 25-25 55-38 90-38 36 0 66 13 91 38 25 25 37 55 37 90z m147-237c0-10-4-19-11-26-7-7-16-11-26-11-10 0-19 4-26 11l-98 98c-34-24-72-36-114-36-27 0-53 5-78 16-25 11-46 25-64 43-18 18-32 39-43 64-10 25-16 51-16 78 0 28 6 54 16 78 11 25 25 47 43 65 18 18 39 32 64 43 25 10 51 15 78 15 28 0 54-5 79-15 24-11 46-25 64-43 18-18 32-40 43-65 10-24 16-50 16-78 0-42-12-80-36-114l98-98c7-7 11-15 11-25z"/>
<glyph unicode="&#57348;" d="M457 238c0-11-3-19-10-26l-186-186c-8-7-17-11-26-11-10 0-19 4-26 11l-22 21c-7 7-10 16-10 26 0 10 3 19 10 26l84 84-201 0c-10 0-18 3-24 11-6 7-9 15-9 25l0 37c0 10 3 19 9 26 6 7 14 11 24 11l201 0-84 84c-7 6-10 15-10 25 0 11 3 19 10 26l22 21c7 8 16 11 26 11 10 0 18-3 26-11l186-186c7-6 10-15 10-25z"/>
<glyph unicode="&#57349;" d="M475 256l0-37c0-10-3-18-9-25-6-8-14-11-24-11l-201 0 84-84c7-7 10-16 10-26 0-10-3-19-10-26l-22-21c-7-7-15-11-26-11-9 0-18 4-26 11l-186 186c-7 7-10 16-10 26 0 10 3 18 10 26l186 185c8 8 16 11 26 11 10 0 19-3 26-11l22-21c7-7 10-16 10-26 0-10-3-18-10-26l-84-83 201 0c10 0 18-4 24-11 6-7 9-16 9-26z"/>
<glyph unicode="&#57350;" d="M512 309l0-227c0-12-4-23-13-32-9-9-20-13-33-13l-420 0c-13 0-24 4-33 13-9 9-13 20-13 32l0 227c8-9 18-17 29-25 69-47 116-79 142-98 11-8 20-15 26-19 7-4 16-9 27-14 12-4 22-7 32-7l0 0c10 0 20 3 32 7 11 5 20 10 27 14 6 4 15 11 26 19 33 23 80 56 142 98 11 8 21 16 29 25z m0 84c0-15-5-29-14-43-9-14-21-25-35-35-71-50-116-81-134-93-1-1-6-4-12-9-6-4-11-8-15-11-4-2-9-5-15-9-6-3-11-6-16-8-6-1-10-2-15-2l0 0c-5 0-9 1-15 2-5 2-10 5-16 8-6 4-11 7-15 9-4 3-9 7-15 11-6 5-11 8-12 9-18 12-43 30-75 52-33 23-52 36-59 41-12 8-23 19-33 33-11 14-16 27-16 39 0 15 4 27 12 37 8 10 19 15 34 15l420 0c13 0 23-5 32-14 9-9 14-19 14-32z"/>
<glyph unicode="&#57351;" d="M256 475c40 0 77-9 110-29 34-20 60-46 80-80 20-33 29-70 29-110 0-40-9-77-29-110-20-34-46-60-80-80-33-20-70-29-110-29-40 0-77 9-110 29-34 20-60 46-80 80-20 33-29 70-29 110 0 40 9 77 29 110 20 34 46 60 80 80 33 20 70 29 110 29z m78-148c0-1-1-2-2-3-2-2-3-3-4-3 0 0 1 1 1 2 0 1 1 2 1 3 1 1 1 2 1 2 2 1 4 2 7 4 2 1 7 2 15 3 6 2 11 1 14-3 0 1 1 2 3 4 2 2 3 3 4 3 1 1 2 1 4 2 3 0 4 1 5 2l0 6c-2 0-4 1-5 2-1 2-2 4-2 6 0 0 0-1-1-2 0 1-1 2-2 2-1 0-2 0-3 0-1-1-2-1-3 0-1 0-3 1-4 2-1 1-2 2-2 4-1 3-1 4-1 5-1 1-2 2-3 3-1 1-2 2-3 3 0 0 0 1 0 1-1 1-1 2-1 2-1 1-1 1-1 2-1 0-1 0-2 0-1 0-1 0-2-1-1-1-1-2-2-3-1-1-1-1-1-1-1 0-2 0-2 0-1 0-1 0-1 0-1 0-1-1-2-1 0 0-1-1-1-1-1 0-2-1-3-1-1 0-1 0-2 0 3 1 3 2 0 3-2 0-4 1-5 1 2 0 3 1 2 3 0 2-1 3-2 4l1 0c0 1-1 2-2 2-2 1-3 2-5 3-2 1-3 1-4 2-1 1-5 1-10 2-5 1-8 1-9 0-1-1-1-2-1-3 0 0 0-2 1-4 1-1 1-3 1-3 0-1 0-3-2-4-1-1-2-2-2-3 0-2 2-3 4-5 3-1 4-3 3-6 0-1-2-3-4-4-3-2-4-3-5-4-1-1-1-3 0-5 0-2 1-4 3-5 0 0 0-1 0-1 0 0 0-1-1-1 0-1-1-1-1-1-1-1-2-1-2-1l-1-1c-2-1-4 0-6 2-2 2-3 4-4 7-1 5-3 8-4 9-5 1-8 1-9-1-1 3-5 5-11 8-5 2-11 2-17 1 1 0 1 2 0 4-1 3-3 4-5 4 0 1 1 3 1 5 0 2 0 3 0 4 1 2 2 4 3 6 1 0 1 1 2 3 2 1 2 2 3 3 1 2 1 2 0 2 7-1 12 0 15 3 1 1 2 3 3 5 1 2 2 4 3 5 2 1 3 2 4 2 1-1 2-1 4-2 2-1 3-1 4-1 3-1 4 0 5 3 0 2-1 4-3 5 3 0 3 2 1 5-1 2-1 2-2 3-2 1-5 0-8-2-1 0-1-1 1-2 0 0-1-1-3-3-1-2-3-4-5-5-1-1-3-1-4 2 0 0-1 1-2 3-1 3-1 4-2 4-2 0-3-1-5-4 1 2 0 3-3 4-3 2-5 2-7 3 4 2 3 4-2 7-2 1-4 2-6 2-3 0-5 0-6-1-1-2-1-3-1-4 0-1 0-1 1-2 1-1 2-1 3-2 1 0 2 0 3-1 2 0 2 0 3-1 3-1 3-3 2-4 0 0-1 0-2-1-2 0-3 0-4-1-1 0-1-1-1-1-1-1-1-2 0-4 0-2 0-3-1-4-1 1-2 3-2 5-1 2-2 4-2 5 1-2-1-3-8-2l-2 0c-1 0-3 0-5 0-2-1-4-1-6-1-1 1-3 1-4 3 0 1 0 3 0 5 0 1 1 1 1 1 0 1-1 1-3 3-1 1-2 2-3 2-8-3-17-7-26-12 1 0 2 0 3 1 1 0 2 1 4 2 1 0 2 1 3 1 6 3 10 3 12 2l1 2c3-3 5-6 6-8-2 1-4 1-9 1-4-1-6-3-6-4 1-2 2-4 1-5 0 1-2 2-3 3-1 1-3 2-4 3-1 1-3 1-4 2-3 0-6-1-7-1-28-15-50-36-67-63 1-1 3-2 4-2 0-1 1-1 1-3 0-2 0-3 1-3 0-1 1 0 3 1 2-2 2-4 1-6 0 0 4-2 12-7 4-4 6-6 6-6 1-3 0-4-2-6-1 1-1 2-3 3-2 1-2 2-3 1 0-1 0-3 1-5 0-3 1-4 3-4-2 0-3-1-3-4-1-3-1-7-1-10 0-4 0-6 0-7l0 0c0-3 0-6 2-10 2-5 4-6 6-6-2 0 0-5 6-12 1-2 2-3 2-3 1 0 2-1 4-2 1-1 3-2 4-3 1-1 2-2 3-3 0-1 1-3 3-6 1-3 2-6 4-7-1-1 0-3 2-6 2-2 3-4 3-6 0 0 0 0 0 0-1-1-1-1-1-1 0-1 2-2 4-4 3-1 4-2 5-3 0-1 0-2 0-3 0-2 1-3 1-3 1-1 1-1 2-1 1 4-1 10-6 18-3 4-5 7-5 8-1 1-1 2-2 4 0 2-1 4-1 5 0 0 1-1 2-1 0 0 1 0 2-1 1 0 2-1 2-1 1 0 1-1 1-1-1-1-1-3 0-5 1-2 2-4 4-5 1-2 3-3 5-6 1-2 3-3 3-3 1-1 2-3 4-6 2-2 2-4 0-4 2 0 4-1 6-3 2-1 3-3 5-5 1-2 1-4 2-8 0-3 1-5 1-7 1-1 1-2 3-3 1-2 2-3 3-3l5-2c0 0 1-1 4-2 1-1 2-2 5-3 2-2 4-3 6-4 2 0 3-1 5-1 1 0 2 0 4 1 1 0 3 1 4 1 2 0 5-1 8-4 3-4 5-6 6-6 7-4 12-5 16-4-1 0-1 0 0-2 0-1 1-2 2-4 1-2 2-3 3-4 0-1 1-2 1-3 1-1 3-2 5-4 3-2 4-3 5-4 2 0 2 1 2 2 0-1 1-3 2-5 2-3 4-4 6-3 2 0 4 3 4 9-6-3-11-1-14 5 0 0-1 1-1 2-1 0-1 1-1 2-1 1-1 2-1 2 0 1 0 2 0 3 0 0 1 0 1 0 2 0 3 1 3 1 0 1 0 2 0 4-1 2-1 3-1 4-1 1-2 3-4 5-1 3-3 4-3 5-1-2-2-3-5-3-2 1-3 1-4 3 0 0 0-1-1-2 0 0 0-1 0-1-2 0-4 0-4 0 0 0 0 2 0 5 1 3 1 5 1 6 1 1 1 2 2 4 1 1 2 3 2 4 1 1 1 2 1 3 0 2 0 2-1 3-1 1-3 1-5 1-4 0-6-2-7-6-1 0-1-1-1-3-1-1-1-2-2-3 0-1-1-2-2-2-2-1-4-1-7-1-3 0-6 1-7 2-2 1-5 4-6 8-2 4-3 8-3 11 0 1 0 4 1 7 0 3 0 6 0 7 1 2 0 4-1 7 0 1 1 2 2 3 2 1 3 2 3 3 1 0 1 0 2 0 0 1 0 1 1 0 0 0 1 0 1 1 0 0 1 1 1 2 0 0-1 0-1 0-1 1-1 1-1 1 1 0 4 0 8 1 4 1 6 0 8-1 2-2 5-2 6 1 0 0 0 1-1 3 0 1 0 2 0 3 1-5 4-6 8-2 1-1 2-1 5-2 2 0 4 0 5-1 0 0 1-1 2-2 0 0 1-1 1-1 1 0 1 0 2 0 0 1 1 1 2 2 2-3 3-5 4-7 2-7 3-12 5-12 1-1 2-1 3-1 1 0 1 1 1 3 1 1 1 3 0 4 0 1 0 2 0 3l0 3 0 5-1 2c-2 1-4 2-5 4-1 1 0 3 1 5 1 2 2 3 4 5 0 0 1 1 2 1 1 1 3 1 5 2 1 1 2 2 3 2 4 4 6 7 4 10 2 0 3 1 4 3-1 0-1 0-2 1-1 0-1 1-2 1-1 1-1 1-1 1 1 1 2 2 0 4 1 1 2 2 2 3 1 2 2 3 3 3 1-2 3-2 6 0 1 1 1 3 0 4 1 2 3 3 6 3 3 1 4 2 5 3 1 0 2 0 2 1 0 0 1 1 1 3 0 2 0 3 0 3 1 1 3 2 5 3 2 1 3 1 3 1l5 4c1 0 1 1 0 1 4-1 7 0 9 3 2 2 1 4-2 6 1 1 1 2 0 2-2 1-3 1-5 2 1 0 2 0 4 0 1 0 2 0 3 0 2 2 2 4-2 5-4 1-8 0-13-3z m-46-251c39 7 72 25 100 54-1 1-2 1-4 1-1 1-3 1-3 1-4 2-6 2-7 3 0 1 0 2-1 3 0 1-1 2-2 3-1 0-2 1-4 2-1 1-2 2-3 2 0 1-1 1-2 2-1 1-1 1-2 1 0 1-1 1-2 2-1 0-2 0-2 0-1 0-2 0-3 0l-1 0c-1 0-1-1-2-1 0 0-1-1-1-1-1 0-1 0-1-1 0 0 0 0 0 0-4 3-8 5-11 6-1 0-2 1-3 1-1 1-2 2-3 2-1 1-2 1-3 1-1 0-2-1-3-2-1-1-1-3-2-4 0-2 0-4 0-4-1 1-1 2 0 5 1 2 1 4 0 5 0 1-1 2-3 1-1 0-2 0-3-1-1 0-2-1-3-2-2-1-2-2-3-2 0 0-1-1-2-2-2-1-2-1-3-2 0-1-1-2-1-3-1-2-1-3-2-3 0 0-1 1-3 1-2 1-3 1-3 2 1-2 1-5 1-10 1-5 1-8 2-11 1-6 0-10-4-14-5-4-8-8-8-11-1-4 0-7 3-7 0-2 0-4-2-6-1-3-2-5-2-6 0-2 0-3 1-5z"/>
<glyph unicode="&#57352;" d="M361 205c-7-23-21-42-40-56-19-14-41-21-65-21-24 0-46 7-65 21-19 14-33 33-40 56-1 5-1 9 2 14 2 4 5 7 10 9 5 1 10 1 14-1 5-3 8-6 9-11 5-16 14-28 27-37 13-10 27-14 43-14 16 0 30 4 43 14 13 9 22 21 27 37 1 5 4 8 9 11 4 2 9 2 14 1 5-2 8-5 10-9 3-5 3-9 2-14z m-142 124c0-10-3-19-10-26-7-7-16-10-26-10-10 0-19 3-26 10-7 7-11 16-11 26 0 10 4 19 11 26 7 7 16 11 26 11 10 0 19-4 26-11 7-7 10-16 10-26z m147 0c0-10-4-19-11-26-7-7-16-10-26-10-10 0-19 3-26 10-7 7-10 16-10 26 0 10 3 19 10 26 7 7 16 11 26 11 10 0 19-4 26-11 7-7 11-16 11-26z m73-73c0 25-5 48-15 71-9 23-22 42-39 58-16 17-35 30-58 39-23 10-46 15-71 15-25 0-48-5-71-15-23-9-42-22-58-39-17-16-30-35-39-58-10-23-15-46-15-71 0-25 5-48 15-71 9-23 22-42 39-58 16-17 35-30 58-39 23-10 46-15 71-15 25 0 48 5 71 15 23 9 42 22 58 39 17 16 30 35 39 58 10 23 15 46 15 71z m36 0c0-40-9-77-29-110-20-34-46-60-80-80-33-20-70-29-110-29-40 0-77 9-110 29-34 20-60 46-80 80-20 33-29 70-29 110 0 40 9 77 29 110 20 34 46 60 80 80 33 20 70 29 110 29 40 0 77-9 110-29 34-20 60-46 80-80 20-33 29-70 29-110z"/>
<glyph unicode="&#57353;" d="M196 465l-166 0c-17 0-30-13-30-30l0-166c0-16 13-30 30-30l166 0c17 0 31 13 31 30l0 166c0 17-14 30-31 30z m-129-196c-12 0-22 10-22 23 0 12 10 22 22 22 13 0 23-10 23-22 0-13-9-23-23-23z m0 61c-12 0-22 10-22 22 0 13 10 23 22 23 13 0 23-10 23-23 0-12-9-22-23-22z m0 60c-12 0-22 10-22 23 0 12 10 22 22 22 13 0 23-10 23-22 0-13-9-23-23-23z m91-121c-12 0-22 10-22 23 0 12 10 22 22 22 13 0 23-10 23-22 0-13-10-23-23-23z m0 61c-12 0-22 10-22 22 0 13 10 23 22 23 13 0 23-10 23-23 0-12-10-22-23-22z m0 60c-12 0-22 10-22 23 0 12 10 22 22 22 13 0 23-10 23-22 0-13-10-23-23-23z m345-171l-117 117c-11 12-31 12-42 0l-117-117c-12-12-12-31 0-43l117-117c11-12 31-12 42 0l117 117c13 12 13 31 0 43z m-228-48c-9 8-9 23 0 31 8 9 23 9 31 0 9-8 9-23 0-31-8-9-23-9-31 0z m42 42c-8 9-8 24 0 32 9 9 24 9 32 0 9-8 9-23 0-32-8-8-23-8-32 0z m43 43c-9 9-9 23 0 32 8 8 23 8 32 0 8-9 8-23 0-32-9-9-24-9-32 0z m-22-149c-8 9-8 23 0 32 9 8 24 8 32 0 9-9 9-23 0-32-8-9-22-9-32 0z m43 43c-9 8-9 23 0 32 8 8 23 8 32 0 8-9 8-24 0-32-9-10-23-10-32 0z m43 42c-9 9-9 24 0 32 8 9 23 9 31 0 9-8 9-23 0-32-8-9-22-9-31 0z"/>
<glyph unicode="&#57354;" d="M293 357l0-128c0-3-1-5-3-7-2-2-4-3-7-3l-91 0c-3 0-5 1-7 3-1 2-2 4-2 7l0 18c0 3 1 5 2 6 2 2 4 3 7 3l64 0 0 101c0 2 1 4 3 6 1 2 3 3 6 3l18 0c3 0 5-1 7-3 2-2 3-4 3-6z m118-101c0 28-7 54-20 78-14 24-33 43-57 57-24 13-50 20-78 20-28 0-54-7-78-20-24-14-43-33-57-57-13-24-20-50-20-78 0-28 7-54 20-78 14-24 33-43 57-57 24-13 50-20 78-20 28 0 54 7 78 20 24 14 43 33 57 57 13 24 20 50 20 78z m64 0c0-40-9-77-29-110-20-34-46-60-80-80-33-20-70-29-110-29-40 0-77 9-110 29-34 20-60 46-80 80-20 33-29 70-29 110 0 40 9 77 29 110 20 34 46 60 80 80 33 20 70 29 110 29 40 0 77-9 110-29 34-20 60-46 80-80 20-33 29-70 29-110z"/>
<glyph unicode="&#57355;" d="M375 256c0-7-3-12-9-16l-156-91c-3-2-6-3-9-3-3 0-6 1-9 3-6 3-9 9-9 16l0 182c0 7 3 13 9 16 6 4 12 4 18 0l156-91c6-4 9-9 9-16z m36 0c0 28-7 54-20 78-14 24-33 43-57 57-24 13-50 20-78 20-28 0-54-7-78-20-24-14-43-33-57-57-13-24-20-50-20-78 0-28 7-54 20-78 14-24 33-43 57-57 24-13 50-20 78-20 28 0 54 7 78 20 24 14 43 33 57 57 13 24 20 50 20 78z m64 0c0-40-9-77-29-110-20-34-46-60-80-80-33-20-70-29-110-29-40 0-77 9-110 29-34 20-60 46-80 80-20 33-29 70-29 110 0 40 9 77 29 110 20 34 46 60 80 80 33 20 70 29 110 29 40 0 77-9 110-29 34-20 60-46 80-80 20-33 29-70 29-110z"/>
<glyph unicode="&#57356;" d="M102 68l0 34c0 5-1 9-5 12-3 4-7 5-12 5l-34 0c-4 0-8-1-12-5-3-3-5-7-5-12l0-34c0-4 2-8 5-12 4-3 8-5 12-5l34 0c5 0 9 2 12 5 4 4 5 8 5 12z m0 103l0 34c0 4-1 8-5 12-3 3-7 5-12 5l-34 0c-4 0-8-2-12-5-3-4-5-8-5-12l0-34c0-5 2-9 5-12 4-4 8-5 12-5l34 0c5 0 9 1 12 5 4 3 5 7 5 12z m0 102l0 34c0 5-1 9-5 12-3 4-7 5-12 5l-34 0c-4 0-8-1-12-5-3-3-5-7-5-12l0-34c0-5 2-9 5-12 4-3 8-5 12-5l34 0c5 0 9 2 12 5 4 3 5 7 5 12z m273-205l0 137c0 4-1 8-5 12-3 3-7 5-12 5l-204 0c-5 0-9-2-12-5-4-4-5-8-5-12l0-137c0-4 1-8 5-12 3-3 7-5 12-5l204 0c5 0 9 2 12 5 4 4 5 8 5 12z m-273 307l0 35c0 4-1 8-5 12-3 3-7 5-12 5l-34 0c-4 0-8-2-12-5-3-4-5-8-5-12l0-35c0-4 2-8 5-12 4-3 8-5 12-5l34 0c5 0 9 2 12 5 4 4 5 8 5 12z m376-307l0 34c0 5-2 9-5 12-4 4-8 5-12 5l-34 0c-5 0-9-1-12-5-4-3-5-7-5-12l0-34c0-4 1-8 5-12 3-3 7-5 12-5l34 0c4 0 8 2 12 5 3 4 5 8 5 12z m-103 205l0 137c0 4-1 8-5 12-3 3-7 5-12 5l-204 0c-5 0-9-2-12-5-4-4-5-8-5-12l0-137c0-5 1-9 5-12 3-3 7-5 12-5l204 0c5 0 9 2 12 5 4 3 5 7 5 12z m103-102l0 34c0 4-2 8-5 12-4 3-8 5-12 5l-34 0c-5 0-9-2-12-5-4-4-5-8-5-12l0-34c0-5 1-9 5-12 3-4 7-5 12-5l34 0c4 0 8 1 12 5 3 3 5 7 5 12z m0 102l0 34c0 5-2 9-5 12-4 4-8 5-12 5l-34 0c-5 0-9-1-12-5-4-3-5-7-5-12l0-34c0-5 1-9 5-12 3-3 7-5 12-5l34 0c4 0 8 2 12 5 3 3 5 7 5 12z m0 102l0 35c0 4-2 8-5 12-4 3-8 5-12 5l-34 0c-5 0-9-2-12-5-4-4-5-8-5-12l0-35c0-4 1-8 5-12 3-3 7-5 12-5l34 0c4 0 8 2 12 5 3 4 5 8 5 12z m34 43l0-358c0-12-4-22-13-30-8-9-18-13-30-13l-426 0c-12 0-22 4-30 13-9 8-13 18-13 30l0 358c0 12 4 22 13 30 8 9 18 13 30 13l426 0c12 0 22-4 30-13 9-8 13-18 13-30z"/>
<glyph unicode="&#57357;" d="M366 119l0 18c0 3-1 5-3 7-2 1-4 2-6 2l-202 0c-2 0-4-1-6-2-2-2-3-4-3-7l0-18c0-3 1-5 3-7 2-1 4-2 6-2l202 0c2 0 4 1 6 2 2 2 3 4 3 7z m0 73l0 18c0 3-1 5-3 7-2 2-4 2-6 2l-202 0c-2 0-4 0-6-2-2-2-3-4-3-7l0-18c0-3 1-5 3-7 2-1 4-2 6-2l202 0c2 0 4 1 6 2 2 2 3 4 3 7z m73 101l0-229c0-8-3-14-8-19-5-6-12-8-20-8l-310 0c-8 0-15 2-20 8-5 5-8 11-8 19l0 384c0 8 3 14 8 19 5 6 12 8 20 8l155 0 0-155c0-8 3-14 8-19 5-6 12-8 19-8z m-1 36l-145 0 0 146c15-3 28-9 37-19l89-89c10-10 16-22 19-38z"/>
<glyph unicode="&#57358;" d="M160 256c0 32 0 96 0 96 0 0-80 0-96 0-16 0-32-16-32-32 0-16 0-144 0-160 0-16 16-32 32-32 16 0 32 0 32 0l0-96 97 96c0 0 81 0 96 0 15 0 31 16 31 32 0 16 0 32 0 32 0 0-64 0-96 0-32 0-64 32-64 64z m288 192c-16 0-208 0-224 0-16 0-32-16-32-32 0-16 0-144 0-160 0-16 16-32 32-32 16 0 95 0 95 0l97-96 0 96c0 0 16 0 32 0 16 0 32 16 32 32 0 16 0 144 0 160 0 16-16 32-32 32z"/>
<glyph unicode="&#57359;" d="M389 282c10 0 15-9 15-26 0-17-5-26-15-26 0 0-107 0-107 0 0 0 0-107 0-107 0-10-9-15-26-15-17 0-26 5-26 15 0 0 0 107 0 107 0 0-107 0-107 0-10 0-15 9-15 26 0 17 5 26 15 26 0 0 107 0 107 0 0 0 0 107 0 107 0 10 9 15 26 15 17 0 26-5 26-15 0 0 0-107 0-107 0 0 107 0 107 0"/>
<glyph unicode="&#57360;" d="M256 475c40 0 77-9 110-29 34-20 60-46 80-80 20-33 29-70 29-110 0-40-9-77-29-110-20-34-46-60-80-80-33-20-70-29-110-29-40 0-77 9-110 29-34 20-60 46-80 80-20 33-29 70-29 110 0 40 9 77 29 110 20 34 46 60 80 80 33 20 70 29 110 29z m110-235c6 4 9 9 9 16 0 7-3 12-9 16l-156 91c-6 4-12 4-18 0-6-3-9-9-9-16l0-182c0-7 3-13 9-16 3-2 6-3 9-3 3 0 6 1 9 3z"/>
<glyph unicode="&#57361;" d="M384 416l-192-192-64 64-64-64 128-128 256 256z"/>
<glyph unicode="&#57362;" d="M512 283l0-54c0-3-1-5-3-7-1-2-3-3-6-3l-357 0 0-64c0-4-2-6-5-8-4-1-7-1-10 2l-110 100c-2 1-3 4-3 6 0 3 1 5 3 7l110 101c3 3 6 3 10 2 3-2 5-5 5-8l0-64 357 0c3 0 5-1 6-3 2-2 3-4 3-7z"/>
<glyph unicode="&#57363;" d="M494 257c0-3-1-5-3-7l-110-101c-3-3-6-3-10-2-3 2-5 5-5 8l0 64-357 0c-3 0-5 1-6 3-2 2-3 4-3 7l0 54c0 3 1 5 3 7 1 2 3 3 6 3l357 0 0 64c0 4 2 6 5 8 4 1 7 1 10-2l110-100c2-1 3-4 3-6z"/>
<glyph unicode="&#57364;" d="M402 311c0-5-2-9-5-13l-128-128c-4-4-8-5-13-5-5 0-9 1-13 5l-128 128c-3 4-5 8-5 13 0 5 2 9 5 13 4 3 8 5 13 5l256 0c5 0 9-2 13-5 3-4 5-8 5-13z"/>
<glyph unicode="&#57365;" d="M410 461c14 0 26-5 36-15 10-10 15-22 15-36 0 0 0-308 0-308 0-13-5-25-15-35-10-11-22-16-36-16 0 0-308 0-308 0-13 0-25 5-35 16-11 10-16 22-16 35 0 0 0 308 0 308 0 14 5 26 16 36 10 10 22 15 35 15 0 0 308 0 308 0m-75-327c0 0 44 44 44 44 0 0-79 78-79 78 0 0 79 79 79 79 0 0-44 44-44 44 0 0-79-78-79-78 0 0-78 78-78 78 0 0-45-44-45-44 0 0 79-79 79-79 0 0-79-78-79-78 0 0 45-44 45-44 0 0 78 78 78 78 0 0 79-78 79-78"/>
<glyph unicode="&#57366;" d="M478 230l0 222c0 3-1 5-3 6-1 2-3 3-6 3l-426 0c-3 0-5-1-6-3-2-1-3-3-3-6l0-222c0-2 1-4 3-6 1-1 3-2 6-2l426 0c3 0 5 1 6 2 2 2 3 4 3 6z m34 222l0-290c0-12-4-22-13-30-8-8-18-13-30-13l-145 0c0-6 2-13 5-20 2-7 5-14 8-19 3-6 4-9 4-12 0-4-1-8-5-12-3-3-7-5-12-5l-136 0c-5 0-9 2-12 5-4 4-5 8-5 12 0 3 1 7 4 12 3 5 6 12 8 19 3 7 5 14 5 20l-145 0c-12 0-22 5-30 13-9 8-13 18-13 30l0 290c0 12 4 22 13 30 8 9 18 13 30 13l426 0c12 0 22-4 30-13 9-8 13-18 13-30z"/>
<glyph unicode="&#57367;" d="M111 154c-12 0-22 4-30 12-9 8-13 19-13 30l0 188c0 12 4 22 13 30 8 8 18 13 30 13l290 0c12 0 22-5 30-13 9-8 13-18 13-30l0-188c0-11-4-22-13-30-8-8-18-12-30-12z m-9 230l0-188c0-2 1-4 3-6 2-1 4-2 6-2l290 0c2 0 4 1 6 2 2 2 3 4 3 6l0 188c0 2-1 4-3 6-2 2-4 3-6 3l-290 0c-2 0-4-1-6-3-2-2-3-4-3-6z m367-247l43 0 0-26c0-7-4-13-13-18-8-5-18-8-30-8l-426 0c-12 0-22 3-30 8-9 5-13 11-13 18l0 26z m-192-26c3 0 5 1 5 4 0 3-2 4-5 4l-42 0c-3 0-5-1-5-4 0-3 2-4 5-4z"/>
<glyph unicode="&#57368;" d="M453 165c-8-24-19-48-35-72-25-37-49-56-74-56-9 0-22 3-40 10-16 6-30 9-43 9-11 0-25-3-40-10-16-6-28-9-38-9-29 0-58 24-86 74-28 49-42 97-42 143 0 44 11 79 32 107 21 28 49 41 81 41 14 0 31-3 51-8 20-6 33-9 39-9 9 0 22 3 41 10 20 6 36 10 50 10 22 0 43-7 60-19 10-7 20-16 30-29-15-12-26-24-32-33-13-18-19-38-19-59 0-24 7-45 20-64 13-19 28-31 45-36z m-108 335c0-12-2-25-8-39-6-14-14-27-26-39-11-11-21-17-31-21-7-2-17-4-30-5 1 29 8 53 22 74 14 20 38 34 72 42 0-1 0-2 0-3 1-2 1-3 1-3 0-1 0-2 0-3 0-1 0-2 0-3z"/>
<glyph unicode="&#57369;" d="M196 374c3 0 5 1 8 3 2 2 3 5 3 8 0 3-1 6-3 8-3 2-5 3-8 3-3 0-6-1-8-3-2-2-3-5-3-8 0-3 1-6 3-8 2-2 5-3 8-3z m120 0c3 0 6 1 8 3 2 2 3 5 3 8 0 3-1 6-3 8-2 2-5 3-8 3-3 0-5-1-8-3-2-2-3-5-3-8 0-3 1-6 3-8 3-2 5-3 8-3z m-232-53c8 0 15-2 21-8 6-6 8-13 8-21l0-123c0-8-2-15-8-20-6-6-13-9-21-9-8 0-15 3-21 9-5 5-8 12-8 20l0 123c0 8 3 15 8 21 6 6 13 8 21 8z m303-5l0-190c0-9-3-16-9-23-6-6-13-9-22-9l-21 0 0-65c0-8-3-15-9-20-6-6-13-9-21-9-8 0-15 3-21 9-5 5-8 12-8 20l0 65-40 0 0-65c0-8-3-15-8-20-6-6-13-9-21-9-8 0-15 3-21 9-5 5-8 12-8 20l-1 65-21 0c-8 0-16 3-22 9-6 7-9 14-9 23l0 190z m-66 116c20-11 37-25 49-44 12-19 18-39 18-62l-264 0c0 23 6 43 18 62 12 19 29 33 49 44l-20 37c-1 3-1 5 1 6 3 1 5 0 6-2l21-38c18 8 37 12 57 12 20 0 39-4 57-12l21 38c1 2 3 3 6 2 2-1 2-3 1-6z m136-140l0-123c0-8-3-15-8-20-6-6-13-9-21-9-8 0-15 3-21 9-6 5-8 12-8 20l0 123c0 8 2 15 8 21 6 6 13 8 21 8 8 0 15-2 21-8 5-6 8-13 8-21z"/>
<glyph unicode="&#57370;" d="M238 494l0-183c0-12-4-22-10-32-7-9-16-16-27-20l0-222c0-10-3-19-11-26-7-7-16-11-25-11l-37 0c-10 0-18 4-26 11-7 7-11 16-11 26l0 222c-10 4-19 11-26 20-7 10-10 20-10 32l0 183c0 5 2 9 5 13 4 3 8 5 13 5 5 0 9-2 13-5 4-4 5-8 5-13l0-119c0-5 2-9 6-13 3-4 8-5 13-5 5 0 9 1 13 5 3 4 5 8 5 13l0 119c0 5 2 9 5 13 4 3 8 5 13 5 5 0 10-2 13-5 4-4 6-8 6-13l0-119c0-5 1-9 5-13 4-4 8-5 13-5 5 0 9 1 13 5 3 4 5 8 5 13l0 119c0 5 2 9 6 13 3 3 7 5 12 5 5 0 10-2 13-5 4-4 6-8 6-13z m219 0l0-457c0-10-3-19-11-26-7-7-16-11-25-11l-37 0c-10 0-18 4-26 11-7 7-11 16-11 26l0 146-64 0c-2 0-4 1-6 3-2 1-3 4-3 6l0 229c0 25 9 46 27 64 18 18 40 27 65 27l73 0c5 0 9-2 13-5 3-4 5-8 5-13z"/>
<glyph unicode="&#57371;" d="M485 459c0-7-4-14-12-22l-180-181 0-219 91 0c5 0 9-2 13-6 3-3 5-8 5-13 0-5-2-9-5-13-4-3-8-5-13-5l-256 0c-5 0-9 2-13 5-3 4-5 8-5 13 0 5 2 10 5 13 4 4 8 6 13 6l91 0 0 219-180 181c-8 8-12 15-12 22 0 4 1 8 5 10 3 3 7 5 11 5 3 1 7 1 12 1l402 0c5 0 9 0 12-1 4 0 8-2 11-5 4-2 5-6 5-10z"/>
<glyph unicode="&#57372;" d="M410 203l-80 38-34 16c15 9 27 24 35 41 6 14 10 29 10 46 0 9-1 18-4 27-10 41-42 72-81 72-38 0-70-30-81-70-2-9-4-19-4-29 0-18 4-34 11-49 8-16 20-30 35-39l-33-15-82-38c-7-4-12-12-12-21l0-91c0-12 8-22 19-22l123 0 0 70c0 0 0 1 0 2l0 0 20 35 0 0c1 1 2 2 4 2 2 0 3-1 4-2l0 0 0-1c0 0 0 0 0 0l20-34 0 0c0-1 0-2 0-2l0-70 123 0c11 0 19 10 19 22l0 91c0 9-4 17-12 21z m-130 23l0 0-20-35 0 0c-1-1-2-2-4-2-2 0-3 1-4 2l0 0 0 0c0 0 0 0 0 0l-20 35 0 0c0 0 0 1 0 2 0 2 2 4 4 4l40 0c2 0 4-2 4-4 0-1 0-2 0-2z"/>
<glyph unicode="&#57373;" d="M109 49c0-15-5-27-16-36-10-9-23-13-38-13-21 0-37 6-50 19l17 25c9-9 19-13 30-13 6 0 10 2 14 4 5 3 7 7 7 12 0 13-10 18-30 16l-8 16c2 2 5 6 9 13 5 6 9 11 13 15 3 4 7 8 10 11l0 1c-3 0-8-1-14-1-6 0-11 0-14 0l0-15-30 0 0 43 95 0 0-25-27-33c10-2 18-7 23-14 6-7 9-15 9-25z m0 179l0-45-103 0c-1 7-2 12-2 15 0 10 3 19 7 27 4 8 10 14 16 19 6 5 13 10 19 14 6 4 12 8 16 12 5 4 7 9 7 13 0 5-2 9-4 11-3 3-7 4-12 4-8 0-16-6-23-17l-24 17c5 10 11 18 20 23 9 5 20 8 31 8 13 0 25-4 35-12 9-8 14-18 14-32 0-9-3-18-10-26-6-8-13-14-21-18-8-5-15-10-22-15-6-5-10-10-10-15l36 0 0 17z m403-91l0-55c0-2-1-4-3-6-2-2-4-3-6-3l-348 0c-2 0-4 1-6 3-2 2-3 4-3 6l0 55c0 3 1 5 3 7 2 1 4 2 6 2l348 0c2 0 4-1 6-2 2-2 3-4 3-7z m-402 257l0-28-96 0 0 28 31 0c0 8 0 19 0 35 0 15 0 27 0 34l0 4-1 0c-1-3-6-9-14-16l-20 22 39 36 30 0 0-115z m402-111l0-54c0-3-1-5-3-7-2-2-4-3-6-3l-348 0c-2 0-4 1-6 3-2 2-3 4-3 7l0 54c0 3 1 5 3 7 2 2 4 3 6 3l348 0c2 0 4-1 6-3 2-2 3-4 3-7z m0 147l0-55c0-3-1-5-3-7-2-1-4-2-6-2l-348 0c-2 0-4 1-6 2-2 2-3 4-3 7l0 55c0 2 1 4 3 6 2 2 4 3 6 3l348 0c2 0 4-1 6-3 2-2 3-4 3-6z"/>
<glyph unicode="&#57374;" d="M475 448l0-320c0-10-3-18-9-25-7-8-15-14-25-18-10-4-20-7-29-9-10-2-19-3-28-3-9 0-18 1-28 3-9 2-19 5-29 9-10 4-18 10-25 18-6 7-9 15-9 25 0 10 3 18 9 25 7 8 15 14 25 18 10 4 20 7 29 9 10 2 19 3 28 3 20 0 38-4 55-11l0 153-220-68 0-202c0-10-3-18-9-26-7-7-15-13-25-17-10-4-20-7-29-9-10-2-19-3-28-3-9 0-18 1-28 3-9 2-19 5-29 9-10 4-18 10-25 17-6 8-9 16-9 26 0 9 3 18 9 25 7 8 15 13 25 18 10 4 20 7 29 9 10 2 19 3 28 3 20 0 38-4 55-11l0 276c0 6 2 11 5 16 4 5 9 8 14 10l238 73c2 1 5 1 8 1 8 0 14-2 19-8 6-5 8-11 8-19z"/>
<glyph unicode="&#57375;" d="M292 353l74 0-9-81-65 0 0-235-97 0 0 235-49 0 0 81 49 0 0 49c0 35 8 61 24 79 17 18 44 26 81 26l65 0 0-81-40 0c-8 0-14 0-18-2-5-1-8-3-10-6-2-4-3-7-4-10 0-3-1-8-1-14z"/>
<glyph unicode="&#57376;" d="M481 395c-13-18-28-34-46-47 0-3 0-7 0-12 0-25-3-50-11-74-7-25-18-49-33-71-14-23-32-43-52-61-21-17-45-31-74-41-29-11-60-16-92-16-52 0-99 14-142 42 7-1 14-2 22-2 43 0 81 14 115 40-20 0-38 6-54 18-16 12-27 27-33 46 7-1 13-2 18-2 8 0 16 1 24 4-21 4-39 15-53 31-14 17-21 37-21 59l0 1c13-7 27-11 42-11-13 8-23 19-30 32-8 14-11 29-11 44 0 17 4 33 12 47 23-28 51-51 84-68 33-17 69-27 107-29-2 8-3 15-3 22 0 25 9 47 27 65 18 18 40 27 66 27 26 0 49-10 67-29 21 4 40 11 59 22-7-22-21-39-41-51 18 2 35 7 53 14z"/>
<glyph unicode="&#57377;" d="M314 157l0-61c0-12-4-19-11-19-5 0-9 2-13 6l0 86c4 5 8 7 13 7 7 0 11-7 11-19z m97-1l0-13-26 0 0 13c0 13 4 20 13 20 8 0 13-7 13-20z m-276 63l30 0 0 26-89 0 0-26 30 0 0-163 29 0z m82-163l25 0 0 141-25 0 0-108c-6-8-11-12-16-12-4 0-6 2-6 6-1 1-1 4-1 10l0 104-25 0 0-112c0-9 1-16 2-20 2-7 8-11 17-11 9 0 19 6 29 17z m122 42l0 57c0 13 0 23-2 28-3 11-10 16-20 16-10 0-19-5-27-16l0 62-25 0 0-189 25 0 0 14c9-11 17-16 27-16 10 0 17 5 20 16 2 5 2 14 2 28z m97 3l0 4-26 0c0-10 0-16-1-18-1-6-5-10-11-10-9 0-13 7-13 20l0 25 51 0 0 29c0 15-3 26-8 33-7 10-17 15-30 15-13 0-23-5-31-15-5-7-8-18-8-33l0-49c0-15 3-26 9-33 7-10 17-15 31-15 13 0 24 5 30 15 4 5 6 10 6 16 1 1 1 7 1 16z m-174 261l0 60c0 13-4 20-12 20-8 0-12-7-12-20l0-60c0-13 4-20 12-20 8 0 12 7 12 20z m206-215c0-44-3-77-8-100-2-11-8-20-16-28-9-7-18-12-29-13-35-4-88-6-159-6-71 0-124 2-159 6-11 1-20 6-29 13-8 8-14 17-16 28-5 22-8 55-8 100 0 45 3 78 8 100 2 12 8 21 16 29 9 7 18 12 30 13 35 4 87 6 158 6 71 0 124-2 159-6 11-1 20-6 29-13 8-8 14-17 16-29 5-21 8-54 8-100z m-285 365l29 0-35-114 0-77-28 0 0 77c-3 14-9 34-18 61-7 19-13 37-18 53l30 0 20-75z m105-95l0-50c0-16-2-27-8-34-7-10-17-14-30-14-13 0-23 4-30 14-5 7-8 19-8 34l0 50c0 15 3 26 8 33 7 10 17 15 30 15 13 0 23-5 30-15 6-7 8-18 8-33z m96 46l0-142-26 0 0 15c-10-12-20-17-29-17-9 0-15 3-17 10-2 5-3 12-3 22l0 112 26 0 0-105c0-6 1-9 1-10 0-4 2-6 6-6 5 0 10 4 16 12l0 109z"/>
<glyph unicode="&#57378;" d="M269 93c0 4-1 8-2 12-1 4-1 7-2 10-1 3-3 7-5 10-3 4-5 6-6 9-2 2-5 5-8 8-3 4-6 6-8 8-2 1-5 4-9 7-4 3-7 5-9 6-1 2-5 4-9 7-5 3-8 5-9 6-3 0-8 1-14 1-11 0-21-1-31-2-9-2-20-4-30-8-11-3-20-7-28-13-8-5-15-12-20-21-5-9-8-19-8-31 0-13 4-24 10-34 7-11 16-19 27-24 11-6 22-11 34-13 12-3 24-5 37-5 11 0 22 1 32 4 10 2 19 6 28 11 9 5 16 12 22 21 5 9 8 19 8 31z m-35 247c0 11-1 23-4 36-4 13-8 25-14 37-6 12-14 22-24 30-10 8-21 12-34 12-18 0-31-7-41-20-10-13-15-29-15-47 0-9 1-18 4-28 2-10 5-20 10-30 4-10 10-19 16-27 6-8 13-14 22-19 9-5 18-7 28-7 18 0 32 5 40 17 8 11 12 27 12 46z m-37 135l125 0-39-22-38 0c13-9 24-21 31-36 7-16 11-32 11-48 0-15-2-27-6-38-5-11-10-20-16-26-7-7-13-13-19-19-7-5-12-11-16-17-5-6-7-13-7-20 0-5 2-9 5-14 3-5 7-9 12-14 5-4 11-9 17-14 6-4 12-10 18-15 6-6 12-13 17-19 5-7 9-15 12-25 3-9 5-19 5-30 0-30-13-57-40-81-29-25-69-37-120-37-11 0-23 1-34 3-12 2-23 5-35 9-12 5-22 10-31 17-9 7-16 15-22 25-6 11-9 22-9 35 0 12 4 25 11 39 6 12 15 22 27 31 12 9 26 16 42 21 15 4 30 8 44 10 14 2 28 3 43 4-12 16-18 30-18 42 0 3 0 5 0 7 1 2 1 4 2 6 0 1 1 3 2 6 1 2 1 4 2 6-8-1-14-2-20-2-29 0-53 10-73 28-20 19-31 43-31 71 0 26 9 50 28 71 18 21 40 35 66 41 18 4 36 5 54 5z m297-73l0-36-73 0 0-73-37 0 0 73-73 0 0 36 73 0 0 73 37 0 0-73z"/>
<glyph unicode="&#57379;" d="M463 332c0 5-4 9-9 9l-67 0 0 110c0 5-5 10-10 10l-242 0c-5 0-10-5-10-10l0-110-67 0c0 0 0 0 0 0-5 0-9-4-9-9l0 0 0-188c0-5 4-10 9-10l67 0 0 79 262 0 0-79 67 0c5 0 9 5 9 10l0 188z m-102-33l-210 0 0 127c0 5 4 9 9 9l192 0c5 0 9-4 9-9l0-127z m-209-238c0-5 4-10 9-10l190 0c5 0 9 5 9 10l0 126-208 0z"/>
<glyph unicode="&#57380;" d="M192 223c-2-1-1-3 0-3 6 1 20 2 23-1 2-3-3-16-5-22-1-2 1-2 2-1 10 9 13 27 11 29-2 4-20 6-31-2z m38 22c-6 3-13 4-19 4l18 25c2 2 3 4 3 5l0 7c0 1-1 2-2 2l-34 0c-1 0-2-1-2-2l0-8c0-1 1-2 2-2l18 0-20-29c-1-2-1-4-1-5l0-8c0-1 1-2 2-2 12 6 25 6 36 0 1-1 2 1 2 2l0 8c-1 1-2 3-3 3z m-26-30c-22-9-45-14-67-14-33 0-63 9-88 23-2 1-4-1-2-3 23-21 53-33 88-33 24 0 52 8 71 22 4 3 2 7-2 5z m-155 26c-2 3-4 5-4 10l0 15c0 7 0 13-5 18-4 4-10 5-15 5-10 0-21-4-23-16 0-1 1-2 2-2l10-1c1 0 2 1 2 2 1 4 4 6 8 6 2 0 5-1 6-3 1-2 1-5 1-7l0-1c-6-1-14-1-19-4-6-3-11-8-11-17 0-11 7-16 15-16 7 0 11 2 17 7 2-3 2-4 6-7 1 0 2 0 2 0 2 2 6 5 8 7 0 2 0 3 0 4z m-19 15c0-4 0-7-2-11-2-3-4-5-7-5-4 0-6 3-6 7 0 9 8 10 15 10z m136 11c-6-1-14-1-19-4-6-3-11-8-11-17 0-11 7-16 15-16 7 0 11 2 17 7 2-3 2-4 6-7 1 0 2 0 2 0 2 2 6 5 8 7 1 1 1 2 0 3-2 3-4 5-4 10l0 16c0 7 0 13-5 18-4 4-10 5-15 5-10 0-21-4-23-16 0-1 1-2 2-2l10-1c1 0 2 1 2 2 1 4 4 6 8 6 2 0 5-1 6-3 1-2 1-5 1-7z m0-9l0-2c0-4 0-7-2-11-2-3-4-5-7-5-4 0-6 3-6 7 0 10 8 11 15 11z m-108-27l10 0c1 0 2 1 2 2l0 28c0 6 0 15 7 15 7 0 6-9 6-15l0-28c0-1 1-2 2-2l10 0c1 0 2 1 2 2l0 28c0 3 0 7 1 10 1 3 4 4 6 4 3 0 5-1 6-5 0-2 0-8 0-10l0-28c0-1 1-2 2-2l10 0c1 0 2 1 2 2l0 33c0 6 1 12-3 17-3 4-8 6-12 6-6 0-12-3-14-10-3 7-7 10-13 10-6 0-11-3-14-10l0 8c0 1-1 2-2 2l-10 0c-1 0-2-1-2-2l0-53c3-1 3-2 4-2z m363 58c-15 0-23-14-23-29 0-15 7-30 21-30 15 0 23 14 23 30 0 14-7 29-21 29z m9-44c-2-5-6-8-11-8-4 0-8 3-10 7-2 4-3 10-3 15 0 5 1 10 2 14 2 5 6 8 11 8 4 0 8-3 10-7 2-5 3-10 3-15 1-4 0-9-2-14z m-170 44c-15 0-23-13-23-29 0-16 8-29 23-29 14 0 24 13 24 29-1 15-9 29-24 29z m0-48c-8 0-8 14-8 20 0 6 0 17 8 17 3 0 6-1 7-5 1-4 2-10 2-14-1-7-1-18-9-18z m252 40c-2 5-7 8-12 8-7 0-12-5-15-12-2 7-7 12-13 12-6 0-11-5-14-11l0 8c0 1-1 2-2 2l-4 0c-1 0-2-1-2-2l0-53c0-1 1-2 2-2l5 0c1 0 2 1 2 2l0 30c0 5 0 9 3 13 2 3 5 5 8 6 3 0 6-2 8-5 1-3 2-6 2-10l0-34c0-1 1-2 2-2l4 0c1 0 2 1 2 2l0 29c0 5 0 9 3 14 2 4 5 6 9 6 3 0 6-2 8-6 2-3 1-7 1-11l0-32c0-1 1-2 2-2l5 0c1 0 2 1 2 2l0 32c-4 5-4 11-6 16z m-121-30l-4 0c-1 0-2-1-2-2-2-7-6-12-12-12-10 0-12 13-12 22 0 9 3 21 13 22 6 0 11-5 12-12 0-1 1-2 2-2l5 0c1 0 2 1 2 2-2 12-9 19-20 19-14 0-21-15-21-30 0-15 6-29 21-29 11 0 18 8 20 19-2 2-3 3-4 3z m-73 37c-7 0-11-3-14-11l0 9c0 1-1 1-2 1l-10 0c-1 0-2-1-2-2l0-53c0-1 1-2 2-2l10 0c1 0 2 1 2 2l0 28c0 4 0 7 2 10 1 3 3 4 6 4 7 0 6-8 6-14l0-29c0-1 1-2 2-2l10 0c1 0 2 1 2 2l0 35c0 5 0 12-3 16-1 5-6 6-11 6z m32-53c0 3-2 5-5 5-2 0-5-2-5-5 0-3 3-5 5-5 3 0 5 2 5 5z"/>
<glyph unicode="&#57381;" d="M115 210l0 68c17 5 29-6 23-12 0-5-6-11-11-17 0-5 0-11 0-17 0-5 0-5 5-11 6-6 6-11 12-11l17 0c0 5-6 11-6 17 0 5-6 11-6 11-5 6-5 11 0 11 23 17 6 40-17 40l-39 0 0-79z m-90 45c0 34 34 57 62 23l0 22c-45 17-85 0-85-39 0-46 40-63 85-46l0 23c-28-34-57-17-62 17z m164 23l-23-68 17 0 6 22 28 0 6-22 23 0-29 79-22 0c0 0-6-6-6-11z m6-29l11 29 11-29z m119 34c-34 12-63 0-68-34 0-34 34-51 68-34l0 17c-23-22-46-11-46 17 0 23 17 40 40 29 6 0 11-6 11-12z m28-73l0 79-23 0 0-79z m6 45c-6-6-6-11 0-11l23-34 22 0-28 34c0 0 0 5 0 5l28 34-22 0z m51 34l0-79 45 0 0 11-22 0 0 68z m108-34l0 11-34 0 0 23 34 0 0 17-57 0 0-96 62 0 0 11-39 0 0 34z"/>
<glyph unicode="&#57382;" d="M404 282l22-33 23 33 0-41 9 0 0 68c0 0-20-29-31-45-11 15-32 46-32 46l0-69 9 0z m-101-88c0 11 0 19 0 28-12 0-23 0-35 0 0-1 0-4 0-5 10 0 19 0 30 0 0-12 0-35 0-35l37 35c0 0 116 0 174 0 0 1 0 4 0 5-59 0-176 0-176 0 0 0-27-25-30-28z m-210 89l0-23c0 0-11 12-16 18-4 5-8 10-12 16-4 5-8 9-14 16 0-14 0-24 0-35 0-11 0-23 0-34 3 0 6 0 8 0 0 16 0 33 0 50 15-17 29-35 42-53 0 23 0 69 0 69l-8 0z m185-15c8 0 24 0 24 0l0 10-24 0c0 0 0 13 0 18 9 0 18 0 28 0 0 3 0 7 0 10-14 0-27 0-41 0 0-23 0-45 0-65 4 0 9 0 13 0 0 10 0 19 0 27z m-68 0c6 0 11 0 18 0 0-7 0-12 0-19-8-4-16-5-25-2-8 2-14 8-17 16-3 8-3 15 0 23 3 8 15 17 23 17 16 0 21-7 23-8 1 1 1 4 2 7-10 7-20 8-28 7-9-2-19-6-24-15-11-18-7-35 7-46 13-11 31-12 47 0 0 9 0 17 0 26-8 0-16 0-24 0-2-2-2-5-2-6z m174-17l-28 0 0 56-12 0 0-66 40 0z m-275-10c3 0 4 0 7 0 3 7 5 14 8 19 9 0 20 0 30 0 2-7 8-19 8-19l8 0c0 0-20 46-30 69-11-24-20-46-31-69z m19 26c4 9 8 17 12 28 4-9 8-19 12-28-8 0-16 0-24 0z m-108 13c-2 2-5 4-7 8-2 8 3 15 10 15 4 0 11-1 13-4 2 1 3 4 3 6-11 6-24 5-31-3-4-6-5-12-3-19 3-7 11-9 18-14 5-2 11-8 9-14-1-6-5-10-10-10-11 0-17 6-17 6 0 0-4-3-5-3 0 0 4-4 5-4 3-1 4-3 7-3 6-1 10-1 15 0 4 2 7 4 9 7 3 3 4 7 4 9 0 4 0 8-2 11-3 7-12 8-18 12z m307 27c-4 0-6 0-10 0 0-23 0-44 0-64 4 0 8 0 10 0 0 21 0 43 0 64z m147-63c3-1 4-3 7-3 3-1 5-1 8-1 3 0 4 0 7 1 5 2 8 6 9 8 3 3 4 7 4 11 0 4 0 8-2 11-3 5-8 7-13 9-2 2-4 3-6 3-3 1-6 4-7 7-1 2-1 5 0 8 1 2 5 5 8 5 4 0 10 0 14-3l1 0 0 2c1 1 1 3 3 4 0 0 0 1 1 1l0 2-1 0c-4 2-10 4-15 4-7 0-14-3-16-7-4-6-6-14-3-20 3-7 9-10 15-12 1 0 1-2 2-2 3-1 11-5 10-15-1-5-6-9-10-9-9 0-16 4-16 5-1 0-4-2-5-2 0-3 5-7 5-7z"/>
<glyph unicode="&#57383;" d="M90 296l10 0 0-27-10 0c-6 16-30 19-45 19-14 0-23-4-23-10 0-8 19-8 34-10 20-3 49-3 49-29 0-20-27-27-44-27-30 0-39 9-47 9-2 0-2-1-2-5l-11 0 0 30 11 0c3-18 30-22 42-22 7 0 29 1 29 12 0 8-14 8-29 11-18 3-54 3-54 27 0 18 20 27 44 27 26 0 39-9 44-9 2-1 2 1 2 4z m276-78l-17 0-64 55 0-41c0-3 2-4 4-4l12 0 0-10-48 0 0 10 12 0c3 0 4 1 4 4l0 50c0 2-1 3-4 3l-12 0 0 9 40 0 55-47 0 33c0 3-1 4-4 4l-11 0 0 10 47 0 0-10-11 0c-3 0-4-1-4-4l0-62z m104 76l47 0 0-10-9 0c-4 0-8-1-10-4l-32-33 0-17c0-2 1-3 4-3l11 0 0-11-56 0 0 11 11 0c3 0 4 1 4 3l0 16-32 34c-2 3-6 4-10 4l-9 0 0 10 58 0 0-10-5 0c-2 0-3 0-3-1 0-1 0-1 0-3l19-20 19 20c2 2 2 2 0 3 0 1-1 1-2 1l-5 0z m-287 6c-36 0-60-20-60-44 0-24 24-44 60-44 36 0 60 20 60 44 0 24-23 44-60 44z m0-12c21 0 35-14 35-32 0-18-14-32-35-32-20 0-35 14-35 32 0 18 15 32 35 32z"/>
<glyph unicode="&#57384;" d="M174 245c0 16 0 30 0 46 0 1 0 3 0 4 0 2-1 3-3 2-3-1-5-2-7-3-2-2-2-3 0-5 1-1 2-2 2-3 0-6 0-12 0-17-3 0-8 1-11 1-8 0-16-7-18-15-3-8 0-17 6-22 5-3 13-7 22 0 2-3 2-4 5-2 2 1 4 3 6 5 1 1 1 3 0 3-2 0-2 3-2 6z m-8-3c0-3-1-5-4-5-5-1-10 0-13 3-5 5-6 10-3 17 1 5 4 7 9 7 4 0 8-1 10-5 1-1 1-3 1-4 0-2 0-5 0-7 0-2 0-3 0-6z m314 9c-1 5-1 10-2 13-1 5-1 8-2 12-4 0-6 0-8 0-2-9-3-17-5-26-1 9-2 17-3 26-4 0-6 0-9 0 2-14 5-28 8-42 3 0 5 0 7 0 2 8 4 16 5 24 0 0 0 0 1 0 1-8 2-16 5-24 2 0 5 0 8 0 2 14 4 28 8 42-3 0-6 0-8 0-4-7-4-15-5-25z m-353-18c-2 1-2 3-2 5 0 5 0 11 0 17 0 10-9 17-19 14-2-2-5-3-7-4-1 4-2 5-5 4-2-2-4-4-6-5-2-1-3-2 0-3 2-2 2-3 2-5 0-6 0-13 0-18 0-2 0-4-2-5-2 0-2-2-2-2 0-1 2-1 3-1 3 0 7 0 10 0 1 0 2 1 2 1 0 1 0 2-1 2-2 1-2 3-2 5 0 5 0 11 0 17 0 7 1 8 8 8 1 0 2 0 3 0 6 0 8-2 8-8 0-6 0-12 0-17 0-1 0-2-2-4-1 0-1-2-1-3 0 0 1-1 2-1 3 0 7 0 10 0 1 0 3 1 3 1 0 1 0 2-2 2z m145 0c-2 1-2 4-2 5 0 5 0 11 0 17 0 7-4 10-9 12-5 2-10 2-14-1-1-1-2-1-4-2-1 5-2 6-5 2-2-1-4-2-6-4-1-1-2-3 0-4 2-1 2-2 2-4 0-6 0-12 0-17 0-3 0-4-2-5-1 0-1-2-1-3 5 0 9 0 12 0 2 0 3 1 3 1 0 1 0 2-1 2-2 1-3 2-3 4 0 7 0 15 0 23 4 3 7 3 12 3 5 0 8-3 8-8 0-6 0-11 0-16 0-2 0-5-3-6-1 0 0-2-1-3 5 0 9 0 13 0 1 0 2 1 2 1 0 2-1 3-1 3z m141 23c-2 5-3 9-6 15-2 7-2 7-10 7 0 0 0 0-1 0 0-14 0-28 0-42 2 0 4 0 7 0 0 4 0 7 0 12 0 3 0 8 0 11 3-8 5-16 9-23 2 0 4 0 7 0 0 13 0 28 0 42-3 0-5 0-7 0 1-8 1-15 1-22z m24 22c-5 0-8-2-10-5-1-2-3-6-4-8-1-6-1-11 0-17 1-6 4-12 10-14 13-1 16 13 16 22 2 10-1 22-12 22z m3-32c0-3-1-4-3-4-2 0-4 1-4 4 0 7 0 13 0 20 0 3 2 4 4 4 2 0 3-3 3-4 0-3 0-7 0-10 0-3 0-7 0-10z m-363-8c-2 1-2 2-2 4 0 7 0 14 0 21 0 1 0 3 0 4-4 0-8 0-12 0 1-1 1-3 2-3 2-1 2-3 2-6 0-5 0-10 0-16 0-6-1-8-8-8 0 0-1 0-1 0-6 0-9 3-9 8 0 1 0 4 0 5 0 6 0 11 0 17 0 3-1 5-5 3-2-1-4-2-6-3-3-1-3-2 0-3 2-2 2-3 2-5 0-5 0-10 0-15 1-9 8-15 17-12 3 1 6 2 9 3 1-3 2-4 5-3 2 1 5 3 8 5 0 2 0 4-2 4z m145 0c-4-1-5-1-5 2-1 5-1 9-1 14 0 3-1 7-2 9-1 3-5 6-8 7-6 1-11 0-16-4-1-1-1-2-1-2 0-2 1-3 1-6 0-1 1-1 2-1 1 0 1 1 3 1 1 1 1 4 2 5 1 2 3 3 6 2 2 0 3-2 4-4 0-3 1-5 1-7-3-1-7-1-9-3-3-1-8-3-10-5-6-6-2-14 4-15 3 0 5-1 7 0 4 1 7 2 10 3 0 0 2-1 2-2 4-4 11-2 12 4 0 1 0 2 0 2 0 0-2 0-2 0z m-15 0c-3-2-7-4-11-1-4 1-4 5 0 8 3 2 7 3 11 3 0-1 1-2 1-5 0-1 1-4-1-5z m148 2c-9-7-19-3-23 5 3 1 4 1 5 2 7 2 13 4 20 7 3 1 4 2 3 4 0 1-2 3-3 4-9 11-25 10-33-4-4-9-2-21 6-26 9-6 20-3 27 5 1 1 4 3 1 4 0 2-2 0-3-1z m-24 9c-2 6 0 12 5 14 5 2 11 0 14-7-5-2-12-5-19-7z m-311 2c-2 2-5 3-7 4-4 2-5 4-4 7 1 2 5 3 8 1 1 0 1-1 2-1 1-1 1-1 3-3 1 0 2-1 2-1 1 0 1 3 1 3 0 5 0 6-6 8-1 0-3 0-4 0-1 0-2 0-4 0-5-2-9-6-10-11-1-4 1-9 7-11 1-1 3-1 5-2 2-2 3-2 5-3 2-1 4-2 2-5-1-3-2-4-4-4-5 0-8 1-10 4-1 1-3 2-4 2-1 0-2 0-2 0-1-1 0-8 2-9 7-2 14-4 20 0 4 2 6 6 6 10 0 7-3 10-8 11z m293-11c-1-1-4-2-5-2-9-4-17 1-19 9-2 6 0 12 5 16 4 3 13 2 14-2 1-2 0-5 3-5 1 0 2 3 3 5 1 2 0 4-2 5-4 3-8 4-13 4-11 0-21-11-20-23 1-8 7-15 15-17 8-2 17 1 21 7 0 1 1 2 0 3 0 1-1 1-2 0z m199 30c1 0 3 0 3-1l0 29-146 0 0-29c0 0 2 0 3 0 5 0 9-4 9-10 0-4-4-9-9-9-1 0-2 0-2 0l0-38 147 0 0 39c0 0-3-1-4-1-4 0-9 4-9 9-1 7 2 11 8 11z m-5-24l0-25-132 0 0 25c7 2 13 8 13 15 0 6-5 13-13 14l0 17 132 0 0-17c-6-1-11-8-11-14 0-7 5-14 11-15z"/>
<glyph unicode="&#57385;" d="M77 360c-11 2-24 3-32 2-21 0-34-5-35-7-4-1-10-9-10-13 0-3 5-6 11-6 3 0 10 0 10 3 0 3-10 3-10 5 0 2 13 5 32 5 51 1 147-43 147-91 2-36-44-42-65-44-8 0-18 0-26 4 0 11 0 24 0 28 0 5 0 13 0 20 19 0 50-4 50-12 0-4-11-4-11-8 0-1 6-4 11-4 5 0 14 6 14 16 0 14-24 25-61 25l-1 0c0 2 0 16-2 23-1 8-6 12-8 12-5 0-8-27-8-38-27-5-49-14-49-27 0-8 19-31 48-43 1-8 3-20 9-18 10 0 10 5 10 11 11-3 24-5 37-5 49 2 75 29 75 60-5 44-72 92-136 102z m1-136c-24 8-41 22-41 29 0 6 24 9 43 11 0-10 0-26-2-40z m154 48c0 5-5 13-8 13-3 0-5-2-6-10-2-8-2-22-2-29 0-6 0-20 0-25 0-5 3-8 8-8 5 0 6 1 8 5 0 3 0 9 0 17 2 7 2 32 0 37z m40 58c0 6-5 12-14 12-2 2-5 7-16 7-24 0-44-19-44-34 0-5 2-8 7-13-2-1-2-3-2-4 0-4 3-10 7-10 3 0 4 2 6 6 3-1 8-1 11-1 24 1 45 24 45 37z m-61-15c0 0 0 2 0 3 0 4 5 16 19 16-3-1-6-4-11-9-5-5-6-8-8-10z m43 18c5 0 7-3 7-7 0-4-8-19-27-19-5 0-8 0-12 0 4 5 18 24 32 26z m31-47c-13 0-39-4-42-17-1-7-3-13 3-16 5-3 20-3 29-3 10 0 26-4 27-8 0-5-6-12-30-13-26 0-19 9-13 11 10 0 8-6 24-6 3 0 11 1 11 6 0 5-17 10-30 8-11 0-19-6-18-13 0-8 12-22 37-22 8 0 19 5 23 6 3 2 8 5 8 19 0 20-21 21-32 21-12 0-24 2-24 5 0 5 43 6 51 8 6 0 8 6 8 8-2 5-19 6-32 6z m70 10c-6 0 0-13 5-37 2-11 5-21 2-21-4 0-23 42-32 42-12 0-15-40-15-51 0-11 3-18 10-18 5 0 6 3 6 11 0 7 0 31 2 31 3 0 17-39 29-39 12 0 14 20 14 34 0 32-16 48-21 48z m72-61c-5 0-17-3-22-3-5-2-8-2-7 2 2 3 4 9 4 11l22 0c5 0 5 1 5 8 0 5-3 5-8 5 0 0-8 0-16 0l3 9c8 0 18 2 22 2 12 0 12 3 12 5 0 1-2 3-4 8-3 3-4 6-14 4-8 0-43-3-43-8 0-1 3-6 6-9 2 0 3-2 5-2l-5-11c0 0-1 0-1 0-7 0-5-5-5-10 0-1 0-3 1-3-1-6-4-14-4-19 0-11 9-18 16-16 16 0 32 14 35 16 8 3 3 11-2 11z m71 47c-13 0-29-20-44-42-1 10 7 24 13 34 5 6 3 16 2 16-3 0-27-21-26-50 0-5 2-10 5-14-10-20-16-39-16-53 0-16 11-23 14-23 4 0 4 5 4 8 3 21 8 40 14 55 3 0 5-2 6-2 20 0 42 24 40 48 0 13-4 23-12 23z m-26-52c11 23 24 36 27 36 8 1 2-32-27-36z"/>
<glyph unicode="&#57386;" d="M70 289l-5 16-65-17 8-28c7 3 16-1 18-8 1-8-3-16-12-17l7-28 45 12-9 33 19 5-4 14-18-5-5 17c0 0 21 6 21 6z m72-19l0 12-34 0 0-45 12 0 0 15 17 0 0 12-17 0 0 8 22 0z m40-33l12 0-15 45-14 0-15-45 12 0 2 4 18 0z m-16 14l5 16 6-16c0 0-11 0-11 0z m64 31l0-20-17 20-6 0 0-45 13 0 0 19 17-19 5 0 0 45z m105-45l12 0-15 45-14 0-15-45 12 0 2 4 18 0z m-16 14l5 16 5-16c1 0-10 0-10 0z m63 31l0-20-17 20-5 0 0-45 13 0 0 19 16-19 6 0 0 45z m-110 0l-12 0 0-45 12 0c11 0 21 10 21 23 0 12-10 22-21 22z m0-34l0 23c5-1 10-6 10-11 0-6-5-11-10-12z m236 12c0-14-10-24-23-24-14 0-24 10-24 24 0 13 10 23 24 23 13 0 23-10 23-23z m-23 12c-7 0-13-5-13-12 0-8 6-13 13-13 7 0 12 5 12 13 0 7-5 12-12 12z m-47-12l0-13c0 0-2-1-5-1-8 0-13 6-13 13 0 7 5 12 13 12 3 0 7-2 8-4l6 10c-5 3-9 5-14 5-14 0-24-10-24-23 0-14 10-24 24-24 5 0 12 0 16 3l0 21z m-368 29l-3 9-59-16 4-16c9 1 18-4 20-13 2-8-3-17-11-21l5-18 39 10-7 28 19 5-4 14-18-5-5 17z"/>
<glyph unicode="&#57387;" d="M261 234c3 0 8 1 9 4l16 28 0-101c0-3 4-7 7-7l88 0c3 0 8 2 9 5l34 51 35-51c2-3 7-5 10-5l41 0c4 0 5 2 4 5l-61 95 61 94c1 3 0 5-4 5l-41 0c-3 0-8-2-10-5l-35-51-34 51c-1 3-6 5-9 5l-87 0c-3 0-6-3-6-7l0-70-58 0c-3 0-6 3-6 6l0 64c0 4-3 7-6 7l-82 0c-3 0-6-3-8-7l-38-118-40 118c-2 4-5 7-8 7l-37 0c-3 0-5-3-5-7l62-185c2-3 5-7 8-7l37 0c3 0 7 4 8 7l63 185 0-185c0-3 3-7 6-7l34 0c3 0 6 4 6 7l0 64c0 3 3 6 6 6l31 0z m72-71l0 186 62-93z"/>
<glyph unicode="&#57388;" d="M469 282c-10 0-18-8-18-18l0-53c0-19-16-35-35-35-2 0-3 0-5 0-9 2-17 6-24 13-3-11-8-21-14-29-2-2-2-2-3-3 1-2 3-3 4-3 5-4 10-7 16-8 8-4 16-5 24-5 39 0 69 30 69 69l0 52c3 12-5 20-14 20z m-304-2c-8 5-19 2-24-6l-45-77-38 75c-5 8-15 11-24 8-10-3-12-14-8-24l52-104 0-5 2-1 2 0c1-2 4-2 6-2 2 0 3 0 5 0l5 0 0 3 59 104c19 13 16 24 8 29z m217 72c0 10-8 18-17 18-10 0-18-8-18-18l0-78c-9 6-22 9-35 9-38 0-69-30-69-69 0-19-16-35-35-35-8 0-14 2-19 7-8 4-13 12-15 22 0 2 0 5 0 6l0 28-30-52c6-17 21-32 38-38 8-3 18-5 26-5 38 0 69 31 69 69 0 19 16 35 35 35 19 0 35-16 35-35 0-19-16-35-35-35-11 0-21 5-27 13-3-12-10-23-18-32 13-10 27-16 45-16 38 0 69 30 69 68z"/>
<glyph unicode="&#57389;" d="M68 188c-9 0-18 2-26 5-8 4-16 8-22 15-6 6-11 14-14 22-4 8-6 17-6 26 0 9 2 18 6 26 3 8 8 16 14 22 6 7 14 11 22 15 8 3 17 5 26 5 9 0 18-2 26-5 8-4 16-8 22-15 7-6 11-14 15-22 3-8 6-17 6-26 0-9-3-18-6-26-4-8-8-16-15-22-6-7-14-11-22-15-8-3-17-5-26-5z m0 131c-8 0-17-2-25-5-8-3-15-8-20-14-6-5-10-12-14-20-3-8-4-16-4-25 0-9 1-17 4-25 4-8 8-15 14-21 5-5 12-10 20-13 8-4 16-5 25-5 8 0 17 1 25 5 8 3 15 8 21 13 5 6 10 13 13 21 4 8 5 16 5 25 0 9-1 17-5 25-3 8-8 15-13 20-6 6-13 11-21 14-8 3-17 5-25 5z m4-41c0-3-3-5-5-5-2 0-4 2-4 5 0 2 2 4 4 4 2 0 5-1 5-4z m14-58c0 0 2 0 0 0l0 31-22-17z m26 51l-28 20c-5 5-10 6-17 6-7 0-14-2-18-8-5-5-8-11-8-18l0-51c0 0 0-2 0-2 0 0 1 0 1 0l22 16-17 13 0 24c0 11 9 20 20 20 4 0 8-1 10-3 8-5 7-12 7-13 0-2-2-4-4-5-4-3-5-5-5-8 0-3 1-6 4-7 2-2 5-4 9-4l1 2 24 17c-1 0 0 0-1 1 1 0 0 0 0 0z m276 4c0 13-10 22-23 22l-20 0c-1 0-3-1-3-2l0-74c0-1 2-3 3-3l20 0c6 0 12 3 16 7 5 5 7 11 7 16z m-13-33c0-5-4-9-10-9l-10 0 0 53 10 0c6 0 10-5 10-10z m73 33c0 6-2 12-7 16-4 5-10 7-15 7-6 0-12-2-16-7-5-4-7-10-7-16l0-33c0-12 10-21 23-21 5 0 11 2 15 7 5 4 7 9 7 15z m-12-34c0-5-5-9-10-9-6 0-11 5-11 9l0 34c0 6 5 9 11 9 5 0 10-4 10-9z m-111 55c0 1-1 2-2 2l-9 0c-1 0-2-1-2-2l0-45-3 6c-1 4-5 13-10 22-2 5-5 12-8 17 0 1-1 1-1 1l-9 0c-1 0-2-1-2-2l0-74c0-1 1-3 2-3l9 0c1 0 2 2 2 3l0 44 21-45c0-2 1-2 1-2l9 0c1 0 2 2 2 3 0 1 0 75 0 75z m-121 0c0 1-1 2-3 2l-42 0c-1 0-2-1-2-2l0-74c0-1 1-1 2-1l9 0c2 0 3 1 3 2l0 31 20 0c1 0 2 1 2 2l0 9c0 1-1 2-2 2l-20 0 0 21 30 0c2 0 3 1 3 2z m58-21c0 13-11 22-23 22-6 0-11-2-16-7-5-4-7-10-7-16l0-53c0-1 1-3 2-3l10 0c1 0 2 2 2 3l0 26 20 0 0-26c0-1 1-3 3-3l9 0c1 0 2 2 2 3l0 54z m-32-14l0 15c0 6 4 10 10 10 6 0 10-5 10-10l0-14-20 0z m262-8c10 2 18 12 18 21 0 6-3 12-7 16-5 5-10 7-16 7l-21 0c-1 0-2-1-2-2l0-74c0-1 1-3 2-3l10 0c1 0 2 2 2 3l0 30 15-23c1-3 2-5 3-7 1-3 2-3 5-4l9 0c1 0 1 0 1 1 0 0 0 2 0 3z m-15 12l0 21 10 0c6 0 10-5 10-11 0-5-4-10-10-10 0 0-10 0-10 0z"/>
<glyph unicode="&#57390;" d="M126 96l-36 78c-2 5-5 8-7 10-1 2-5 3-8 3l0 5 53 0 0-3c-3 0-5 0-5-2-1-1-1-1-1-5 0-1 0-1 0-3 0-1 0-1 1-3l15-35 19 54 21-54 12 33c0 2 0 2 2 4 0 1 0 1 0 3 0 1 0 3-2 5-1 1-3 1-6 1l0 5 27 0 0-3c-3 0-6-2-8-3-1-2-3-5-6-10l-31-78-19 51z m101 2c-11 0-21 3-27 9-6 7-11 15-11 26 0 11 3 19 11 25 6 7 16 10 27 10 11 0 21-3 27-10 7-6 12-14 12-25 0-11-4-19-12-26-6-6-16-9-27-9z m0 4c5 0 7 2 8 7 2 3 2 11 2 24 0 13 0 21-2 24-1 3-5 6-8 6-5 0-6-1-8-5-1-3-1-11-1-24 0-12 0-20 1-24 0-6 3-8 8-8z m48 63c0 1 0 3 0 5 0 1-1 1-3 3l-6 6c4 2 11 3 16 7 4 3 12 4 19 8l0-80c0-4 0-7 1-8 2-2 4-2 7-2l0-3-42 0 0 3c3 0 5 0 7 2 1 1 1 3 1 8z m72-55c0-3 0-6 2-8 1-1 3-1 6-1l2 0 0-3-43 0 0 3c3 0 4 0 6 1 2 2 2 4 2 8l0 47-7 0 0 3c2 2 5 5 8 10 2 3 3 4 3 6 4 5 8 8 12 11 4 3 9 3 14 3 5 0 10-1 13-3 3-3 5-6 5-9 0-4-2-5-4-7-1-1-3-1-6-1-2 0-3 0-5 1-1 2-3 3-5 7-1 3-3 4-4 4-2 2-4 2-5 2-2 0-3 0-5-2-2-1-2-3-2-4 0-2 2-5 4-8 3-4 4-7 4-8l13 0 0-5-11 0 0-47z m75 0c-3-4-8-8-12-9-5-2-10-3-16-3-5 0-10 1-15 3-5 1-8 5-11 8-3 3-5 6-6 9-2 4-2 8-2 13 0 5 0 8 2 13 1 3 3 8 6 11 3 3 6 7 11 10 5 1 10 3 15 3 8 0 16-3 20-8 5-5 8-13 8-21l-38 0c0-8 3-14 8-19 5-5 11-8 18-8 3 0 4 0 6 2 2 1 5 1 6 4z m-38 34l6 0c7 0 10 0 12 2 1 1 1 3 1 6 0 3 0 6-1 8-2 2-4 3-7 3-3 0-6-1-8-5-1-3-3-8-3-14z m19 272l0-18-33-38 38 2-3-8-66-28 51-62-3-6-62 52-18-84-11-2 6 62-88-16 23-46-3-3-47 45-48-47-11 0 40 51-2 37-41 48 56-33 125 33-7 35 31-25z m-48-45l-5-3-1-6 5 3c0 1 0 3 1 6z m71-203c0 0 1 0 1 0 0 0 2 0 2-2 0 0 0-1 0-1 0 0 0-2 0-2 0 0-2-1-2-1 0 0-1 0-1 0 0 0-2 0-2 0 0 0-2 1-2 1 0 0 0 2 0 2 0 0 0 1 0 1 0 0 2 2 2 2 0-2 0 0 2 0z m0-2c-2 0-2 0 0 0-2 0-2-1-4-1 0 0 0-2 0-2 0 0 0-1 0-1 0 0 0-2 2-2 0 0 2 0 2 0 0 0 1 0 1 0 0 0 2 0 2 2 0 0 0 1 0 1 0 0 0 2 0 2-2 0-2 1-3 1z m-2-4l0 4 2 0c0 0 1 0 1 0 0 0 0 0-1 0l0-1-2 0c0 0 0 0 0 1z m0 1c2 0 2 0 0 0 2 0 2 0 0 0 2 0 2 2 0 0 2 2 2 2 0 0 2 2 2 2 0 0 2 2 2 2 0 0z"/>
<glyph unicode="&#57392;" d="M365 236l-4-4c-1-1-2-1-3-2-2 0-5-1-8-1-2 0-7 0-10 3-6 5-9 12-9 18 0 12 11 19 19 19 2 0 6-1 8-2 5-3 6-7 7-8l-20-8-6-1c2-11 9-17 17-17 2 0 5 2 9 3-1 0 0 1 0 0z m-13 21c2 1 3 1 3 2 0 3-4 7-8 7-4 0-10-3-10-12 0-2 0-2 0-4 0 0 15 7 15 7z m-28-20c0-4 1-4 4-4 1 0 2 0 4 0l-3-2-14 0c2 3 3 3 3 5l0 50-6 0 6 3 11 0c-2-2-3-3-3-6z m-23 28c2-2 6-5 6-12 0-6-3-8-7-11-1-1-3-3-3-5 0-1 1-2 2-3l3-3c3-2 7-6 7-11 0-8-7-16-22-16-12 0-18 5-18 11 0 3 2 7 6 10 6 4 13 4 16 4-1 1-2 2-2 5 0 2 0 3 1 3-1 0-2 0-3 0-9 0-13 7-13 14 0 3 1 8 5 10 4 4 11 5 15 5l17 0-6-3z m-5-37c-1 0-1 0-2 0-1 0-5 0-9-1-2-1-7-3-7-9 0-6 5-10 14-10 8 0 13 4 13 9 0 5-3 6-9 11z m1 16c2 1 2 4 2 6 0 6-3 15-10 15-2 0-5-1-7-3-1-2-1-3-1-6 0-5 3-15 10-15 3 1 6 2 6 3z m-46-14c-14 0-21 10-21 19 0 11 9 20 22 20 12 0 19-9 19-19 0-11-7-20-20-20z m9 6c2 2 3 6 3 9 0 7-3 21-13 21-3 0-5-1-7-3-4-3-4-6-4-10 0-8 5-21 14-21 2 0 6 1 7 4z m-53-6c-14 0-21 10-21 19 0 11 9 20 21 20 13 0 20-9 20-19 1-11-7-20-20-20z m10 6c2 2 3 6 3 9 0 7-4 21-13 21-3 0-6-1-7-3-4-3-4-6-4-10 0-8 4-21 14-21 2 0 5 1 7 4z m-36-4l-11-2c-4-1-8-1-12-1-21 0-29 16-29 28 0 15 11 29 31 29 4 0 8-1 11-2 6-2 9-3 11-4l-6-6-3-1 2 2c-3 3-7 7-17 7-12 0-21-8-21-22 0-15 10-29 27-29 5 0 7 1 10 2l0 12-12 0 7 3 16 0-1-2c-1-1-1-1-1-1 0 0 0-2 0-3l0-10z m207 4l0-21-5 0 0 52 5 0 0-6c2 4 7 7 13 7 10 0 17-8 17-20 0-12-7-20-17-20-5 1-10 3-13 8z m26 13c0 10-5 17-13 17-6 0-11-5-13-8l0-17c3-4 7-8 13-8 9-1 13 6 13 16z m11-19l0 52 4 0 0-52z m50-12c1 0 3-1 3-1 3 0 5 1 7 5l2 7-16 38 4 0 14-33 14 33 5 0-21-46c-1-5-5-7-9-7-2 0-4 0-5 1z m-12 12c0 1 0 2 0 3 0 1 0 2 0 3-2-2-4-4-7-6-2-1-5-1-8-1-5 0-8 1-10 2-3 2-4 5-4 8 0 4 2 6 6 9 3 2 7 4 12 4l10 0 0 4c0 3-1 5-3 6-2 2-4 3-8 3-3 0-5-1-8-2-2-2-3-3-3-5l-4 0c0 2 1 5 4 8 3 1 7 3 12 3 4 0 8-1 11-3 2-2 4-6 4-10l0-19c0-2 0-3 0-5 0-2 1-2 1-3z m-15 2c4 0 7 1 9 3 3 2 5 3 6 6l0 7-10 0c-4 0-7-1-9-3-3-1-4-3-4-6 0-2 1-3 3-5 0-1 3-2 5-2z m-388 24c-19 19-39 39-57 57-2-1-2-3-2-6 0-6 0-12 0-17 0-29 0-57 0-85 0-3 0-5 3-7 17 19 37 39 56 58z m-52-58c0-1 0-1 0 0 24 12 48 26 71 39-5 5-10 10-15 15-19-18-38-37-56-54z m0 117c18-18 37-37 55-55 5 5 10 10 16 15-23 14-47 27-71 40z m76-42c-6-6-12-12-17-17 5-5 11-11 17-17 7 4 14 8 21 13 4 2 4 7 0 9-7 4-14 8-21 12z"/>
<glyph unicode="&#57393;" d="M309 350l35 0 0-188-35 0z m-283 0l35 0 0-62c3 2 6 3 11 3l27 0c21 0 39-17 39-38l0-90-36 0 0 77c0 6-4 11-11 11l-19 0c-6 0-11-5-11-11l0-77-35 0z m254-59l0-89c0-21-18-39-38-39l-36 0c-20 0-38 18-38 39l0 89 35 0 0-78c0-7 5-11 11-11l18 0c6 0 11 4 11 11l0 78z m206 0l0-89c0-21-17-39-38-39l-35 0c-21 0-39 18-39 39l0 89 36 0 0-78c0-7 4-11 11-11l17 0c7 0 12 4 12 11l0 78c1 0 36 0 36 0z"/>
<glyph unicode="&#57394;" d="M400 276c-4 0-8-5-8-15 0-1 0-9 0-21 0-10 0-15 0-18 1-6 4-10 8-10 4 0 7 4 8 13 0 1 0 8 0 19 0 11 0 17 0 19-1 9-4 13-8 13z m62 2c-3 0-5-2-7-4-1-3-2-9-1-14l0-1c0-2 0-2 0-3l16 0 0 4c0 5 0 9-1 12-1 4-3 6-7 6z m4 79l-202 0c-28 0-51-23-51-51l0-99c0-28 23-51 51-51l202 0c28 0 51 23 51 51l0 99c0 28-23 51-51 51z m-163-54l-21 0 0-106-19 0 0 106-22 0 0 22 61 0z m57-106l-16 0 0 9c-4-8-9-12-17-12-10 0-16 8-16 23l0 75 16 0 0-63c0-5 0-9 2-11 1-4 2-5 6-5 5 0 6 3 7 7 0 2 2 6 2 12l0 62 17 0z m63 15c-3-13-8-18-17-18-7 0-13 4-15 12l0-9-16 0 0 128 17 0 0-41c3 7 8 11 15 11 8 0 15-7 17-19 2-7 3-17 3-32-1-15-3-26-4-32z m65 29l-34 0c0-1 0-3 0-7 0-6 0-12 1-14 2-7 4-10 8-10 6 0 9 7 9 19l16 0c0 0 0-1 0-1 0 0 0-2 0-2 0-10-3-19-7-24-4-5-11-8-19-8-9 0-15 3-19 9-2 6-5 13-5 22 0 4 0 12 0 23 0 9 0 16 0 19 1 8 3 13 5 17 4 7 11 10 20 10 10 0 17-4 21-11 4-5 5-18 5-35z m-462-46l0 54-26 74 20 0 15-48 15 48 20 0-26-74 0-54z m51 49c0 16 1 28 4 35 4 11 11 16 23 16 11 0 19-5 23-16 2-7 4-19 4-35 0-16-2-28-4-35-4-11-11-15-23-15-11 0-19 5-23 16-3 6-4 16-4 34z m17-1c0-13 0-19 0-19 2-8 4-14 8-14 4 0 7 4 8 11 0 1 0 8 0 17l0 10c0 9 0 16 0 17-1 7-4 11-8 11-4 0-6-2-8-9 0-3 0-8 0-16 0 1 0-8 0-8z m96 49l0-97-18 0 0 10c-4-8-9-12-16-12-10 0-16 8-16 23l0 75 16 0 0-63c0-6 0-10 2-11 1-4 2-5 6-5 4 0 6 2 7 6 0 3 1 7 1 12l0 62z"/>
<glyph unicode="&#57395;" d="M462 244l-10 0 0-26 10 0c9 0 12 7 12 14 0 11-8 12-12 12z m-100-2l-6-17 13 0z m-152 2l-10 0 0-26 10 0c9 0 11 7 11 14 0 11-7 12-11 12z m-154 2c-5 0-12-3-12-14 0-12 7-14 12-14 5 0 13 2 13 14 0 10-8 14-13 14z m396 42l-13 0c3 3 5 6 5 12 0 10-9 14-19 16l-18 4c-3 0-8 1-8 6 0 6 7 8 13 8 13 0 14-6 16-9l14 0c0 8-7 19-29 19-23 0-28-11-28-18 0-12 12-15 23-18l8-1c8-1 13-2 13-7 0-7-8-8-16-8-12 0-15 6-15 10l-14 0c0-4 1-9 5-13l-14 0 0 5-40 0 0 16 35 0 0 10-35 0 0 13 39 0 0 10-53 0 0-54-14 0 0 54-15 0 0-54-31 0 22 54-15 0-16-46-15 46-17 0 22-54-33 0c6 5 10 12 10 25 0 28-26 32-35 32-9 0-34-4-34-32 0-12 5-20 10-25l-22 0 0 54-22 0-12-47-13 47-22 0 0-54-9 0c-33 0-60-27-60-60 0-33 27-60 60-60l392 0c33 0 60 27 60 60 0 32-27 59-60 59z m-327 45l0-45-11 0z m-69-124c-6 0-24 2-24 21 0 20 17 22 24 22 7 0 25-2 25-22 0-19-18-21-25-21z m27 124l12-45-12 0z m45-123l-10 0-21 29 0-29-10 0 0 41 12 0 19-28 0 28 10 0z m33 11l-16-9 0 36 33-18z m4 91c0 17 12 21 19 21 8 0 20-4 20-21 0-16-12-20-20-20-7 0-19 4-19 20z m46-102l-22 0 0 41 22 0c17 0 21-12 21-19 0-9-4-22-21-22z m65 0l-37 0 0 41 36 0 0-8-27 0 0-9 25 0 0-7-25 0 0-11 27 0 0-6z m57 0l-10 0 0 34-9-34-11 0-9 34 0-34-10 0 0 41 16 0 8-32 9 32 16 0z m42 0l-3 9-17 0-4-9-12 0 18 41 12 0 18-41z m58 0l-11 0-20 29 0-29-10 0 0 41 11 0 19-28 0 28 11 0z m30 0l-21 0 0 41 21 0c17 0 21-12 21-19 0-9-4-22-21-22z"/>
<glyph unicode="&#57396;" d="M126 222c-4-7-5-11-10-18-6-10-15-21-26-21-10 0-12 6-25 6-14 0-16-6-26-6-11 0-19 11-26 19-17 27-19 58-8 74 7 12 19 18 30 18 11 0 19-6 28-6 10 0 15 6 28 6 10 0 21-5 28-15-21-12-18-47 7-57z m-42 84c5 6 9 15 7 24-7 0-17-6-22-12-4-6-8-14-7-23 7-1 16 4 22 11z m85-43c0-5-3-9-11-9-6 0-9 4-9 9 0 6 3 10 9 10 8 0 11-4 11-10z m-19-79l0 62 19 0 0-62z m52 70l-23 0 0 15 66 0 0-15-23 0 0-70-20 0z m104-50c0-9 0-15 0-20l-17 0-1 9c-3-4-9-10-20-10-12 0-22 7-22 27l0 36 20 0 0-33c0-8 2-14 10-14 4 0 8 3 9 7 0 1 1 2 1 4l0 36 20 0z m16 23c0 7 0 14 0 19l17 0 1-8c3 3 9 9 20 9 12 0 22-8 22-26l0-37-20 0 0 34c0 9-2 14-10 14-5 0-8-4-9-8 0-1-2-3-2-5l0-35-19 0c0 0 0 43 0 43z m89-19c1-8 8-12 17-12 6 0 12 1 17 3l2-14c-6-2-14-3-22-3-20 0-32 12-32 31 0 16 9 33 31 33 20 0 28-16 28-30 0-4 0-6-1-8z m23 14c0 5-2 12-11 12-9 0-11-7-12-12 0 0 23 0 23 0z m29-21c4-2 11-5 17-5 6 0 9 3 9 5 0 4-3 5-10 7-13 5-18 11-18 19 0 12 10 20 25 20 8 0 14-1 17-3l-3-14c-3 2-9 4-14 4-4 0-7-2-7-5 0-2 3-5 10-7 12-4 17-10 17-20 0-11-10-20-27-20-8 0-16 2-19 5z"/>
<glyph unicode="&#57397;" d="M113 236l-28-8c-1 0-4 0-4 2 1 10 8 18 19 18 6 0 12-4 16-10 0 0 0-1-3-2z m-13 31c-21 0-38-16-38-38l0-17c0-21 16-37 38-37 13 0 25 7 32 18 1 1 0 4-1 4l-10 5c-1 1-4 1-5-1-3-6-10-10-16-10-8 0-15 6-18 12-1 3 0 4 3 6l47 12c3 1 4 3 4 5l0 3c1 20-15 38-36 38z m109-69c0-3-2-5-6-7 0 0-5-1-10-1-11 0-19 9-19 20l0 19c0 11 8 20 19 20 6 0 16-2 16-13z m13 97l-9 0c-4 0-6-1-6-5l0-22c0-3-1-4-4-4-4 1-6 1-10 1-21 0-38-16-38-37l0-18c0-20 16-36 38-36 8 0 29 3 29 3 3 0 6 2 6 5l0 108c0 2-2 5-6 5z m91-83c0-11-8-21-19-21-4 0-11 2-11 2-3 0-5 2-5 6l0 37c0 11 9 13 16 13 11 0 19-9 19-20z m-19 55c-4 0-7-2-11-2-4-1-4 2-4 4l0 22c0 4-1 5-5 5l-10 0c-4 0-4-2-4-5l0-108c0-2 3-5 5-5 0 0 22-3 30-3 20 0 36 16 36 37l0 17c0 20-17 38-37 38z m112-55c0-11-9-21-19-21-11 0-19 10-19 21l0 17c0 11 8 20 19 20 10 0 19-9 19-20z m-19 55c-21 0-38-16-38-38l0-17c0-21 16-37 36-37 22 0 38 16 38 37l0 17c1 20-16 38-36 38z m129-84l-27 39c-3 3-3 7 0 11l19 28c3 3 1 6-3 6l-12 0c-3 0-4-2-7-6l-9-13c-3-3-4-3-5 0l-10 13c-3 4-4 6-7 6l-12 0c-2 0-4-3-2-6l18-28c2-3 3-5 0-8l-28-39c-3-3 0-5 3-5l11 0c2 0 4 1 6 5l17 26c1 2 4 2 6 0l16-26c3-4 4-5 7-5l12 0c8-4 10-2 7 2z m-57 104c0 0 2 0 2 0 0 0 0 1 0 1-62 33-131 49-201 49-70 0-139-16-201-49 0 0-1-1 0-1 0 0 2-1 2 0 64 23 132 34 199 34 67 1 135-11 199-34z m-413-20c-10 0-19-3-27-8l0 4c0 2-3 5-6 5l-8 0c-2 0-5-3-5-5l0-81c0-3 3-5 5-5l8 0c5 0 6 2 6 5l0 46c0 12 15 21 25 21 5 0 7 3 7 4l0 8c-1 3-2 6-5 6z"/>
<glyph unicode="&#57398;" d="M130 248c0 37 12 61 28 62-16 20-43 31-67 31-27 0-51-11-69-31 16-3 21-17 21-38l-19 0c0 13-3 19-10 19-3 0-6-1-6-5 0 0 0-1 0-1 0-2-2-3-2-7 0-25 42-24 42-64 0-14-11-28-26-28 18-20 42-31 69-31 26 0 50 11 67 29-16 8-28 29-28 64z m-10-59l-21 0 0 51-22 0 0-53-21 0 0 120 21 0 0-49 22 0 0 49 21 0z m-102 19c6 0 9 6 9 13 0 14-14 17-29 32l0-5c2-26 10-40 20-40z m132 43c0 21 7 42 16 42 13 0 16-32 16-42 0-21-6-41-16-41-11-2-16 19-16 41z m210 56l-88 0-10-69-9 69-19 0-10-69-2 0-6 69-19 0 14-117 19 0 12 74 9-74 21 0 11 100 19 0 0-100 21 0 0 100 19 0 0-100 23 0 0 117z m14 0l29 0 10-61 11 61 27 0 0-117-19 0 0 85-14-85-12 0-14 85-2 0 0-85-16 0z m88 0l48 0 0-17-27 0 0-31 21 0 0-19-21 0 0-32 29 0 0-18-50 0z"/>
<glyph unicode="&#57399;" d="M400 333l-20 0 0-127 16-15 20-1 0 129z m-3-126c-8 0-13 1-13 1l0 121 13 0z m-189 126l-48 0 0-18c0 0 12-10 14-11 0-3 0-96 0-96l16-12 20 0c0 0 0 103 0 108 3 0 14 0 14 0l0 13z m-3-16l-15 0 0-106c-10 0-13 0-13 0l0 106-15 0 0 12 42 0 0-12z m-146 16l-21 0 0-3c0 0 0-5 0-8-4 5-10 11-10 11l-28 0 0-138 16-12 17 2c0 0 0 8 0 12 6-4 13-10 13-10l27 2 0 130c0 0-14 14-14 14z m-3-129c-18-2-23-3-23-3l-15 99-1 0 1-100c-8-1-13-1-13-1l0 131 21 0 15-104 2 0 0 104 13 0z m436 51c0 1 11 62 11 62l-14 16-20 0c0 0-1-6-1-11-4 5-10 11-10 11l-20 0c0 0 12-61 12-62 0-2-11-70-11-70l22-17 13-1c0 0 0 7 0 12 5-4 18-13 18-13l18-3c-3 0-18 76-18 76z m-6-56l-15 1-8 57-1 0-7-56-15 1 11 69-11 58 15 0 7-47 1 0 8 47 14 0-11-60z m-122 11c0 0-12 14-15 18 0 8 0 91 0 91l-15 15-19 0 0-124 15-14 37-1z m-17 1c-22 1-30 1-30 1l0 117 13 0 0-106c15 0 17-1 17-1 0 0 0-11 0-11z m-201 38l0 14c0 0-14 15-16 16 0 1 0 23 0 27 4 0 16 0 16 0l0 13-14 15-36 0 0-129 16-12 36 2 0 15c0 0-15 16-16 17 0 1 0 19 0 23 2-1 14-1 14-1z m-16 68l-17 0 0-43 17 0 0-12-17 0 0-43 17 2 0-13c-22-1-30-2-30-2l0 122 30 0z m146-38c0 3 0 23 0 27 3 0 15 0 15 0l0 13-14 15-36 0 0-123 16-14 20 0c0 0 0 48 0 53 3 0 16 0 16 0l0 15c-2-2-16 12-17 14z m0 38l-18 0 0-43 18 0 0-12-18 0 0-49-13 0 0 116 31 0c0 0 0-12 0-12z"/>
<glyph unicode="&#57401;" d="M253 210c-45 0-80 35-80 80 0 44 35 80 80 80 45 0 80-36 80-80 0-44-35-80-80-80m0 201c-67 0-120-54-120-120 0-65 54-120 120-120 67 0 120 55 120 120 0 66-53 120-120 120z m0-80c-23 0-42-17-42-41 0-24 18-42 42-42 24 0 41 18 41 42 0 24-19 41-41 41m-109-192l-13 0 0 8 35 0 0-8-12 0 0-37-10 0 0 37m19-37l10 0 3 10 16 0 3-10 10 0-16 45-10 0-16-45m21 34l6-16-11 0z m26-34l9 0 0 18 10 0c5 0 6-2 8-6 0-4 0-8 1-12l10 0c-2 4-2 8-2 12 0 4-1 9-6 9 5 2 8 7 8 11 0 7-5 13-13 13l-24 0 0-45m8 37l11 0c5 0 7-1 7-6 0-5-3-7-7-7l-11 0z m66-32c-3-5-8-6-13-6-13 0-22 9-22 24 0 13 8 24 22 24 10 0 18-7 19-16l-9 0c-2 5-5 8-10 8-8 0-13-8-13-15 0-8 3-14 13-14 6 0 10 3 11 10l-9 0 0 8 17 0 0-24-6 0 0 1m14 40l34 0 0-8-24 0 0-9 22 0 0-8-22 0 0-12 24 0 0-8-34 0 0 45m51-8l-12 0 0 8 35 0 0-8-13 0 0-37-10 0 0 37"/>
<glyph unicode="&#57402;" d="M186 238l0-64 14 0 0 80z m161 15c-9 0-17-8-17-18l0-45c0-9 8-17 17-17l75 0 0 14-75 0c-1 0-1 2-1 2l0 14 43 0 11 15-54 0 0 14c0 2 1 2 1 2l63 0 14 14z m-259 0l0-67c2-8 10-15 18-15l65 0 0 15-65 0c-2 0-2 1-2 1l0 63-16 0z m219 0l-37-63c0-1-1-1-1-1 0 0-2 0-2 1l-37 63-17 0 41-71c4-4 8-8 15-8 6 0 11 4 14 8l42 71z m-139 51l27-37-9 0-23 31-22-31-10 0 26 37-26 34 10 0c0 0 17-24 21-28 1 4 20 28 20 28l10 0z m154-2c0-22-15-36-34-36-19 0-34 14-34 36 0 23 15 37 34 37 21 0 34-14 34-37z m-8 0c0 18-10 29-26 29-14 0-26-11-26-29 0-17 10-28 26-28 16 0 26 12 26 28z m-63-14c0-13-9-21-25-21l-29 0 0 32-15 0 7 7 9 0 0 30 29 0c21 0 23-14 23-19 0-7-4-11-8-15 1-1 3-1 4-3 4 0 5-5 5-11z m-43 19l21 0c9 0 14 5 14 11 0 10-9 12-14 12l-21 0z m35-19c0 10-9 13-17 13l-21 0 0-26 21 0c8 0 17 2 17 13z m135-19l-26 37 26 33-10 0c0 0-18-24-21-27-3 3-21 27-21 27l-9 0 25-33-25-37 9 0 23 30 22-30z"/>
<glyph unicode="&#57403;" d="M160 362l-74-58-8-88 61-72 271-26 20 218z m245-239l-264 26-59 69 8 83 72 56 264-26z m-299 146c-7 0-13-5-13-11 0-7 5-13 11-13 6 0 13 5 13 11 0 6-5 11-11 13z m-2-19c-5 0-8 4-6 8 0 4 4 8 8 6 4 0 8-5 6-8 0-5-5-8-8-6z m163 9l-27 3 0 7 26-3 1 17-25 2 1 6 27-3 2 18-61 6-5-64 60-6z m23 7c0 0 8-4 14-4 6-1 10-4 3-6-6-2-22 3-25 8l-12-16c0 0 15-8 34-10 19-1 34 4 38 13 5 10-1 21-9 23-10 3-26 6-24 9 1 3 11 3 17 0 7-3 8-5 8-5l10 15c0 0-11 8-32 9-21 2-35-9-37-19-1-8 5-14 15-17z m57 33l-1-21 17-1-5-43 32-4 5 44 18-2 1 21z m-6-89l-10 17-35 3-32 4-3-36c0 0 0-9-10-8-9 2-8 10-8 10l3 37-30 3-3-42c0 0 0-24 38-27 39-3 42 19 42 19l3 42 27-40-3-27 32-3 3 27 34 33-37 4z m-144 0c0 0 13 3 13 16 0 12-28 16-28 16l-44 4-7-64c0 0 35-3 45-4 10-2 30 0 34 12 3 15-13 20-13 20z m-31 17c0 0 13 2 13-5 0-6-14-3-14-3z m-3-32l0 10c0 0 18 0 16-7 2-6-16-3-16-3z m40 69c2 13-14 18-14 18 0 0 13 3 13 16 0 12-28 16-28 16l-44 4-7-64c0 0 35-3 45-4 13 1 34 1 35 14z m-43 37c0 0 13 1 13-5 0-6-15-3-15-3z m-3-32l0 11c0 0 17 0 16-6 1-10-16-5-16-5z m238-48c-3 0-5-2-6-5 0-3 1-5 5-6 3 0 4 1 6 4 0 4-3 7-5 7z m-1-10c-2 0-4 2-4 5 0 2 2 3 5 3 2 0 3-1 3-5 0-1-3-3-4-3z m1 8l-1 0 0-6 1 0 0 3 2-3 1 0-1 3c1 0 1 0 1 2-1 0-1 1-3 1z m-1-3l0 2 1 0c0 0 0 0-1-2 1 0 1 0 0 0z"/>
<glyph unicode="&#57391;" d="M450 317c-5 0-8-3-8-7l3-32c0-1 3-3 5-3 3 0 4 2 4 3l4 32c0 4-4 7-8 7z m-44-26c-3 2-6 0-9-5-2-4-2-8 1-9l29-13c2 0 5 0 7 3 1 3 1 5 0 7z m87 0l-26-17c-1-2-1-4 0-7 2-3 3-3 7-3l28 13c4 1 4 6 2 9-3 5-8 7-11 5z m-43-54c-4 0-5-2-5-3l-3-32c0-4 3-7 8-7 4 0 8 3 8 7l-4 32c0 1-1 3-4 3z m22 13c-2 0-5 0-6-4-2-3-2-4 0-6l25-18c3-1 7 0 10 5 1 5 1 8-2 10z m-40-4c-2 4-3 4-6 4l-29-13c-3-2-3-7-2-10 2-3 7-6 10-5l25 18c4 2 4 3 2 6z m-133 7c0 13-5 22-22 22-10 0-16-3-19-5l3-9c3 1 9 5 14 5 10 0 10-5 10-8-19 0-32-7-32-21 0-8 6-16 17-16 7 0 13 3 16 6 0 0 2-9 15-6 0 3-2 8-2 13z m-14-13c0-2 0-2 0-3-2-3-5-7-10-7-3 0-6 2-6 7 0 8 8 9 17 9l0-6z m-208 51l-7-30c-1-10-3-16-4-24-2 8-4 14-5 24l-7 30-16 0-6-30c-2-10-3-16-5-24-1 8-3 16-5 25 0 0-4 23-6 29l-16 0c0 0 13-51 14-59 2-10 7-13 20-11l8 32c1 8 3 13 4 22 2-8 2-14 4-22 0 0 3-15 4-23 2-8 7-12 18-9l19 70z m57-38c0 13-4 22-22 22-10 0-16-3-19-5l3-9c3 1 10 5 14 5 10 0 10-5 10-8-19 0-32-7-32-21 0-8 6-16 18-16 6 0 12 3 16 6 0 0 1-9 14-6 0 3-2 8-2 13z m-14-13c0-2 0-2 0-3-2-3-5-7-10-7-3 0-6 2-6 7 0 8 8 9 18 9l0-6z m24-19l14 0 0 70-14 0z m216 70l-14 0c0-6 0-53 0-53 0-6 1-12 4-16 4-3 7-4 12-4 4 0 8 1 9 1l0 11c-1 0-3 0-5 0-4 0-6 4-6 10l0 19 13 0 0 13-13 0z m-38-27l0 10-13 0 0-53 14 0 0 27c0 2 0 3 0 3 2 7 5 10 11 10 2 0 4 0 5 0l0 14c-1 0-1 0-3 0-5 0-11-3-14-11z m-93 11c-5 0-8-1-11-3-4-2-5-3-7-6-1 6-8 9-14 9-10 0-13-5-16-8l0 8-15 0 0-53 15 0 0 31c0 1 0 3 0 5 1 3 5 6 8 6 6 0 8-5 8-13l0-30 14 0 0 32c0 1 0 3 0 5 2 3 5 6 8 6 7 0 8-5 8-13 0 0 0-22 0-29l15 0 0 32c4 15-4 21-13 21z m280-49c-2 0-3-2-3-4 0-1 1-3 3-3 1 0 3 2 3 3 0 2-2 4-3 4z m0-5c-2 0-2 1-2 1 0 2 2 2 2 2 1 0 1-2 1-2 0 0 0-1-1-1z m1 1c0 2 0 2 0 0 0 2 0 2 0 0 0 2 0 2 0 0-1 2-1 2-1 2l0-3 1 1c-1 0-1 0 0 0z m-1 2c0 0 1 0 0 0 1 0 0 0 0 0z"/>
<glyph unicode="&#57404;" d="M163 285c7 0 13 5 13 11 0 6-6 11-11 11-7 0-13-5-13-11 0-6 5-11 11-11z m77 0l-24 0-8-16-6 16-47 0 0-77 45 0 8 19 8-19 26 0-21 40z m-64-74l0 72 19-35z m86 48c-3 2-4 3-4 5 0 3 3 5 8 5 8 0 16-7 16-7l11 12c0 0-10 12-27 12-21 0-31-11-31-22 0-18 18-22 32-29 5-1 7-5 7-6 0-3-4-5-8-5-7 0-20 8-20 8l-8-14c0 0 15-12 26-12 6 0 13 2 18 4 9 4 12 11 14 19 0 19-19 24-34 30z m135-16c0 5 0 8 0 13 0 16-15 30-31 30-14 0-24-6-30-17l0 16-13 0 0 14-22 0 0-14-8 0 0-16 6-2 0-40c0-9 5-21 19-21 5 0 7 0 10 2 3 0 10 3 10 3l-5 16c0 0-5-1-8-1-2 0-3 4-3 4l0 37 11 0c-3-5-5-11-5-19 0-21 10-42 34-42 9 0 20 5 28 12l-6 14c-6-5-14-6-21-6-9 0-11 9-11 17 0 0 0 2 0 3l45 0z m-31 29c7 0 12-6 12-13l-23 0c0 5 5 13 11 13z m66 14c-3 0-11-8-11-8l0 5-23 0 0-77 23 0 0 55c0 0 1 1 6 1 5 0 10-1 10-1l3 22c0 2-3 3-8 3z m-338 0l31 0 0 20-53 0 0-98 22 0 0 40 31 0 0 21-31 0z m32 20l23 0 0-98-23 0z"/>
</font>
</defs>
</svg>
